<?xml version="1.0" encoding="UTF-8" standalone="no"?>
<svg
   xmlns:dc="http://purl.org/dc/elements/1.1/"
   xmlns:cc="http://creativecommons.org/ns#"
   xmlns:rdf="http://www.w3.org/1999/02/22-rdf-syntax-ns#"
   xmlns:svg="http://www.w3.org/2000/svg"
   xmlns="http://www.w3.org/2000/svg"
   version="1.1"
   id="svg2"
   xml:space="preserve"
   width="360"
   height="375"
   viewBox="0 0 360 375"><metadata
     id="metadata8"><rdf:RDF><cc:Work
         rdf:about=""><dc:format>image/svg+xml</dc:format><dc:type
           rdf:resource="http://purl.org/dc/dcmitype/StillImage" /><dc:title></dc:title></cc:Work></rdf:RDF></metadata><defs
     id="defs6"><clipPath
       clipPathUnits="userSpaceOnUse"
       id="clipPath152"><path
         d="M 0,540 H 720 V 0 H 0 Z"
         id="path150" /></clipPath><clipPath
       clipPathUnits="userSpaceOnUse"
       id="clipPath172"><path
         d="M 0,540 H 720 V 0 H 0 Z"
         id="path170" /></clipPath></defs><g
     id="g10"
     transform="matrix(1.3333333,0,0,-1.3333333,0,720)"><g
       id="g18"
       transform="translate(190.97407,348.75788)"><path id="Sinoe"
         d="m 0,0 4.202,5.108 0.214,0.189 0.451,0.138 0.637,0.077 2.084,-0.128 0.599,-0.117 0.507,-0.2 2.011,-1.219 0.755,-0.583 0.919,-0.924 1.256,-1.829 1.002,-1.839 0.367,-1.017 0.253,-0.965 0.045,-0.455 -0.024,-0.704 -0.049,-0.24 L 15.154,-4.933 15.035,-5.146 14.86,-5.341 14.639,-5.494 14.394,-5.612 13.302,-5.894 12.751,-5.97 10.62,-6.026 10.331,-6.062 9.844,-6.174 9.593,-6.261 9.356,-6.394 9.153,-6.572 8.997,-6.797 8.886,-7.026 8.816,-7.272 8.718,-7.981 8.648,-8.206 8.551,-8.431 l -1.373,-1.94 -0.282,-0.495 -0.109,-0.257 -0.08,-0.271 0.005,-0.31 0.075,-0.358 0.271,-0.535 0.26,-0.26 0.275,-0.165 1.018,-0.225 0.921,-0.316 0.332,-0.224 0.223,-0.24 0.101,-0.235 0.04,-0.255 -0.005,-0.254 -0.12,-0.691 -0.002,-0.005 -0.508,-2.41 -0.065,-0.848 0.214,-1.025 0.547,-1.716 0.357,-0.756 0.332,-0.474 4.602,-4.736 2.024,-3.047 0.278,-0.561 0.282,-1.048 0.065,-1.04 -0.158,-2.073 -0.838,-0.321 -0.538,-0.316 -0.373,-0.342 -2.074,-2.502 -0.547,-0.912 -0.242,-0.28 -0.312,-0.234 -0.535,-0.215 -0.349,-0.066 -2.835,0.015 -0.507,-0.078 -0.255,-0.102 -0.247,-0.128 -4.332,-3.35 -1.947,-1.103 -0.336,-0.362 -0.418,-0.566 -1.525,-2.648 -0.914,-1.979 -0.198,-0.246 -0.276,-0.223 -0.548,-0.214 -0.342,-0.087 -1.632,-0.114 -0.244,-0.198 -0.24,-0.377 -0.472,-1.679 -0.147,-0.963 -0.317,-1.026 -0.574,-0.749 -1.72,-1.524 -0.007,-0.006 -2.848,1.04 -2.036,1.092 -4.595,3.895 -1.706,1.089 -2.016,0.933 -0.681,0.129 -1.349,0.599 -2.01,0.31 -1.607,0.488 -1.538,0.719 -1.125,0.854 0.214,0.144 0.042,0.043 0.016,0.074 0.133,0.231 -2.873,0.792 -2.314,1.353 -3.752,3.244 -1.038,0.666 -2.27,1.079 -2.045,1.522 -1.178,0.442 -1.098,0.556 -0.869,1.167 h 0.853 l -0.863,1.194 -1.318,0.722 -1.455,0.552 -1.285,0.669 -4.202,3.951 0.016,0.002 0.088,0.01 0.143,0.142 0.035,0.097 -0.02,0.103 -0.137,0.172 -0.573,0.441 -0.092,0.092 -0.081,0.102 -0.041,0.107 -0.058,0.26 -0.03,0.382 0.009,0.195 0.021,0.131 0.099,0.138 0.155,0.123 0.96,0.296 0.215,0.098 0.143,0.093 0.106,0.081 0.448,0.418 0.176,0.102 0.364,0.152 0.176,0.205 0.148,0.311 0.187,0.654 0.138,0.312 0.167,0.203 0.367,0.123 0.235,0.035 0.273,0.016 0.173,-0.026 0.117,0.005 0.101,0.041 0.262,0.265 1.837,2.43 0.254,0.557 0.289,1.102 0.085,0.568 0.02,0.347 -1.343,6.014 -0.353,1.002 -0.477,0.811 -0.386,0.854 -0.234,0.947 1.363,1.468 1.8,1.042 1.87,1.846 1.048,0.783 1.82,0.745 0.583,0.316 2.013,1.559 0.827,0.333 1.408,0.229 0.63,0.231 0.51,0.489 0.264,0.728 0.173,1.828 0.187,0.833 0.794,1.604 1.076,1.374 1.389,0.979 1.739,0.417 7.592,-0.179 1.058,0.515 0.645,0.618 0.99,1.48 17.078,-9.569 z"
         style="fill:#ffe3ca;fill-opacity:1;fill-rule:evenodd;stroke:none"
          /></g><g
       id="g22"
       transform="translate(190.97407,348.75788)"><path
         d="m 0,0 4.202,5.108 0.214,0.189 0.451,0.138 0.637,0.077 2.084,-0.128 0.599,-0.117 0.507,-0.2 2.011,-1.219 0.755,-0.583 0.919,-0.924 1.256,-1.829 1.002,-1.839 0.367,-1.017 0.253,-0.965 0.045,-0.455 -0.024,-0.704 -0.049,-0.24 L 15.154,-4.933 15.035,-5.146 14.86,-5.341 14.639,-5.494 14.394,-5.612 13.302,-5.894 12.751,-5.97 10.62,-6.026 10.331,-6.062 9.844,-6.174 9.593,-6.261 9.356,-6.394 9.153,-6.572 8.997,-6.797 8.886,-7.026 8.816,-7.272 8.718,-7.981 8.648,-8.206 8.551,-8.431 l -1.373,-1.94 -0.282,-0.495 -0.109,-0.257 -0.08,-0.271 0.005,-0.31 0.075,-0.358 0.271,-0.535 0.26,-0.26 0.275,-0.165 1.018,-0.225 0.921,-0.316 0.332,-0.224 0.223,-0.24 0.101,-0.235 0.04,-0.255 -0.005,-0.254 -0.12,-0.691 -0.002,-0.005 -0.508,-2.41 -0.065,-0.848 0.214,-1.025 0.547,-1.716 0.357,-0.756 0.332,-0.474 4.602,-4.736 2.024,-3.047 0.278,-0.561 0.282,-1.048 0.065,-1.04 -0.158,-2.073 -0.838,-0.321 -0.538,-0.316 -0.373,-0.342 -2.074,-2.502 -0.547,-0.912 -0.242,-0.28 -0.312,-0.234 -0.535,-0.215 -0.349,-0.066 -2.835,0.015 -0.507,-0.078 -0.255,-0.102 -0.247,-0.128 -4.332,-3.35 -1.947,-1.103 -0.336,-0.362 -0.418,-0.566 -1.525,-2.648 -0.914,-1.979 -0.198,-0.246 -0.276,-0.223 -0.548,-0.214 -0.342,-0.087 -1.632,-0.114 -0.244,-0.198 -0.24,-0.377 -0.472,-1.679 -0.147,-0.963 -0.317,-1.026 -0.574,-0.749 -1.72,-1.524 -0.007,-0.006 -2.848,1.04 -2.036,1.092 -4.595,3.895 -1.706,1.089 -2.016,0.933 -0.681,0.129 -1.349,0.599 -2.01,0.31 -1.607,0.488 -1.538,0.719 -1.125,0.854 0.214,0.144 0.042,0.043 0.016,0.074 0.133,0.231 -2.873,0.792 -2.314,1.353 -3.752,3.244 -1.038,0.666 -2.27,1.079 -2.045,1.522 -1.178,0.442 -1.098,0.556 -0.869,1.167 h 0.853 l -0.863,1.194 -1.318,0.722 -1.455,0.552 -1.285,0.669 -4.202,3.951 0.016,0.002 0.088,0.01 0.143,0.142 0.035,0.097 -0.02,0.103 -0.137,0.172 -0.573,0.441 -0.092,0.092 -0.081,0.102 -0.041,0.107 -0.058,0.26 -0.03,0.382 0.009,0.195 0.021,0.131 0.099,0.138 0.155,0.123 0.96,0.296 0.215,0.098 0.143,0.093 0.106,0.081 0.448,0.418 0.176,0.102 0.364,0.152 0.176,0.205 0.148,0.311 0.187,0.654 0.138,0.312 0.167,0.203 0.367,0.123 0.235,0.035 0.273,0.016 0.173,-0.026 0.117,0.005 0.101,0.041 0.262,0.265 1.837,2.43 0.254,0.557 0.289,1.102 0.085,0.568 0.02,0.347 -1.343,6.014 -0.353,1.002 -0.477,0.811 -0.386,0.854 -0.234,0.947 1.363,1.468 1.8,1.042 1.87,1.846 1.048,0.783 1.82,0.745 0.583,0.316 2.013,1.559 0.827,0.333 1.408,0.229 0.63,0.231 0.51,0.489 0.264,0.728 0.173,1.828 0.187,0.833 0.794,1.604 1.076,1.374 1.389,0.979 1.739,0.417 7.592,-0.179 1.058,0.515 0.645,0.618 0.99,1.48 17.078,-9.569 z"
         style="fill:none;stroke:#999999;stroke-width:0.25;stroke-linecap:round;stroke-linejoin:round;stroke-miterlimit:4;stroke-dasharray:none;stroke-opacity:1"
         id="path24" /></g><g
       id="g26"
       transform="translate(266.22407,330.74418)"><path id="RiverGee"
         d="M 0,0 -0.917,0.485 -0.9,-0.563 -0.643,-1.738 -0.189,-2.863 0.427,-3.753 1.398,-4.3 2.086,-4.167 2.573,-4.27 2.932,-5.504 3.104,-6.773 3.043,-7.513 2.661,-8.194 1.869,-9.308 1.71,-9.748 l -0.24,-1.083 -0.329,-0.411 -0.636,-0.284 -0.152,0.254 -0.004,0.496 -0.21,0.429 -0.071,0.344 0.331,0.326 0.106,0.257 -0.748,0.133 -0.163,-0.184 -1.693,-0.917 -0.487,-0.606 -0.277,-0.597 -0.691,-2.169 0.538,-3.099 -0.05,-1.107 -0.386,-1.155 -1.764,-3.214 -0.923,0.367 -1.108,0.021 -1.073,-0.496 -0.823,-1.19 -0.156,-1.139 0.512,-3.805 h 0.01 l -0.092,-1.414 0.457,-0.907 0.609,-0.865 0.376,-1.274 0.004,-0.997 -0.258,0.023 -0.545,0.39 -0.863,0.092 -2,-1.587 -0.031,-0.62 0.468,-2.032 -0.092,-0.742 -0.369,-1.359 -0.009,-0.511 -0.028,0.022 -0.208,0.158 -0.481,0.25 -1.348,0.331 -0.385,0.173 -0.307,0.27 -0.559,1.067 -0.185,0.213 -0.321,0.214 -0.535,0.163 -0.882,0.113 -2.018,1.082 -0.537,0.142 -0.358,-0.009 -0.188,-0.133 -0.196,-0.092 -0.236,-0.03 -0.213,0.046 -0.273,0.091 -0.218,0.005 -0.242,-0.076 -0.215,-0.133 -0.702,-0.641 -0.528,-0.308 -0.249,-0.087 -0.328,-0.081 -0.346,0.026 -0.725,0.223 -0.256,-0.005 -0.427,-0.122 -0.193,-0.02 -0.444,0.035 -0.298,-0.015 -0.273,-0.051 -0.226,0.056 -0.211,0.205 -0.175,0.556 -0.157,0.978 -0.055,0.209 -0.016,0.242 0.016,0.245 0.086,0.264 0.02,0.209 -0.016,0.244 -0.081,0.276 -0.055,0.514 0.046,9.471 -0.104,0.347 -0.155,0.301 -0.285,0.296 -0.259,0.163 -0.476,0.163 -10.639,1.867 -9.133,1.485 -2.183,0.163 -0.407,-0.234 -0.303,0.01 -0.411,0.117 -2.317,1.557 -0.952,0.291 -2.907,0.377 0.158,2.073 -0.065,1.04 -0.282,1.048 -0.278,0.56 -2.024,3.048 -4.602,4.735 -0.332,0.475 -0.357,0.756 -0.547,1.716 -0.214,1.025 0.065,0.848 0.508,2.41 2.292,-0.878 7.213,0.097 8.59,0.939 4.233,0.848 44.538,1.848 h 0.01 L 1.838,5.294 1.489,4.748 0.725,4.135 0.251,3.174 0.295,0.696 Z"
         style="fill:#ebedc3;fill-opacity:1;fill-rule:evenodd;stroke:none"
          /></g><g
       id="g30"
       transform="translate(266.22407,330.74418)"><path 
         d="M 0,0 -0.917,0.485 -0.9,-0.563 -0.643,-1.738 -0.189,-2.863 0.427,-3.753 1.398,-4.3 2.086,-4.167 2.573,-4.27 2.932,-5.504 3.104,-6.773 3.043,-7.513 2.661,-8.194 1.869,-9.308 1.71,-9.748 l -0.24,-1.083 -0.329,-0.411 -0.636,-0.284 -0.152,0.254 -0.004,0.496 -0.21,0.429 -0.071,0.344 0.331,0.326 0.106,0.257 -0.748,0.133 -0.163,-0.184 -1.693,-0.917 -0.487,-0.606 -0.277,-0.597 -0.691,-2.169 0.538,-3.099 -0.05,-1.107 -0.386,-1.155 -1.764,-3.214 -0.923,0.367 -1.108,0.021 -1.073,-0.496 -0.823,-1.19 -0.156,-1.139 0.512,-3.805 h 0.01 l -0.092,-1.414 0.457,-0.907 0.609,-0.865 0.376,-1.274 0.004,-0.997 -0.258,0.023 -0.545,0.39 -0.863,0.092 -2,-1.587 -0.031,-0.62 0.468,-2.032 -0.092,-0.742 -0.369,-1.359 -0.009,-0.511 -0.028,0.022 -0.208,0.158 -0.481,0.25 -1.348,0.331 -0.385,0.173 -0.307,0.27 -0.559,1.067 -0.185,0.213 -0.321,0.214 -0.535,0.163 -0.882,0.113 -2.018,1.082 -0.537,0.142 -0.358,-0.009 -0.188,-0.133 -0.196,-0.092 -0.236,-0.03 -0.213,0.046 -0.273,0.091 -0.218,0.005 -0.242,-0.076 -0.215,-0.133 -0.702,-0.641 -0.528,-0.308 -0.249,-0.087 -0.328,-0.081 -0.346,0.026 -0.725,0.223 -0.256,-0.005 -0.427,-0.122 -0.193,-0.02 -0.444,0.035 -0.298,-0.015 -0.273,-0.051 -0.226,0.056 -0.211,0.205 -0.175,0.556 -0.157,0.978 -0.055,0.209 -0.016,0.242 0.016,0.245 0.086,0.264 0.02,0.209 -0.016,0.244 -0.081,0.276 -0.055,0.514 0.046,9.471 -0.104,0.347 -0.155,0.301 -0.285,0.296 -0.259,0.163 -0.476,0.163 -10.639,1.867 -9.133,1.485 -2.183,0.163 -0.407,-0.234 -0.303,0.01 -0.411,0.117 -2.317,1.557 -0.952,0.291 -2.907,0.377 0.158,2.073 -0.065,1.04 -0.282,1.048 -0.278,0.56 -2.024,3.048 -4.602,4.735 -0.332,0.475 -0.357,0.756 -0.547,1.716 -0.214,1.025 0.065,0.848 0.508,2.41 2.292,-0.878 7.213,0.097 8.59,0.939 4.233,0.848 44.538,1.848 h 0.01 L 1.838,5.294 1.489,4.748 0.725,4.135 0.251,3.174 0.295,0.696 Z"
         style="fill:none;stroke:#999999;stroke-width:0.25;stroke-linecap:round;stroke-linejoin:round;stroke-miterlimit:4;stroke-dasharray:none;stroke-opacity:1"
         id="path32" /></g><g
       id="g34"
       transform="translate(157.70557,379.46778)"><path id="RiverCess"
         d="M 0,0 -0.075,0.036 -0.149,0.138 -0.237,0.373 -0.376,0.531 -0.475,0.608 -0.608,0.598 -0.674,0.46 -0.704,0.174 v -0.536 l -0.041,-0.271 -0.102,-0.153 -0.108,-0.057 -0.083,-0.06 -0.059,-0.329 -0.038,-0.081 -0.07,-0.062 -0.325,-0.158 -0.234,-0.159 -0.049,-0.127 0.069,-0.154 0.119,-0.117 1.354,-0.911 0.325,-0.316 0.129,-0.21 L 0.238,-3.731 0.284,-4.63 0.264,-4.785 0.01,-5.576 -0.021,-5.76 V -5.883 L 0.021,-5.938 0.223,-6.107 0.589,-6.281 0.751,-6.48 1.3,-7.406 1.416,-7.692 1.462,-7.876 1.377,-8.034 1.31,-8.137 0.233,-9.45 0.096,-9.685 0.061,-9.798 v -0.086 l 0.126,-0.174 0.301,-0.323 1.069,-0.843 0.061,-0.102 v -0.117 L 1.533,-11.565 1.295,-11.801 1.12,-11.928 0.903,-12.046 0.73,-12.097 0.548,-12.113 0.04,-12.046 h -0.144 l -0.083,-0.027 -0.053,-0.061 -0.076,-0.174 -0.236,-0.827 -0.025,-0.24 0.035,-0.168 0.093,-0.057 0.112,-0.05 0.137,-0.037 0.125,-0.06 0.115,-0.087 0.17,-0.21 0.165,-0.271 0.229,-0.297 0.126,-0.133 0.148,-0.117 0.198,-0.209 0.021,-0.108 -0.092,-0.096 -0.139,-0.057 -0.47,-0.397 -0.239,-0.534 -0.051,-0.305 0.04,-0.307 0.196,-0.449 0.683,-0.921 0.305,-0.521 0.066,-0.286 -0.015,-0.214 -0.545,-0.875 -0.055,-0.142 -0.069,-0.536 -0.289,-1.538 -1.39,-0.979 -1.075,-1.374 -0.795,-1.604 -0.186,-0.832 -0.173,-1.829 -0.264,-0.728 -0.511,-0.489 -0.63,-0.231 -1.408,-0.229 -0.826,-0.333 -2.014,-1.559 -0.583,-0.316 -1.819,-0.744 -1.049,-0.784 -1.87,-1.846 -1.8,-1.042 -1.362,-1.468 0.233,-0.947 0.386,-0.854 0.478,-0.811 0.352,-1.002 1.344,-6.014 -0.021,-0.347 -0.085,-0.568 -0.289,-1.102 -0.254,-0.557 -1.836,-2.43 -0.262,-0.265 -0.102,-0.041 -0.117,-0.005 -0.173,0.026 -0.272,-0.016 -0.236,-0.035 -0.367,-0.123 -0.167,-0.203 -0.137,-0.312 -0.188,-0.654 -0.147,-0.311 -0.176,-0.205 -0.364,-0.152 -0.176,-0.102 -0.448,-0.418 -0.107,-0.081 -0.142,-0.093 -0.215,-0.098 -0.96,-0.296 -0.156,-0.123 -0.098,-0.138 -0.022,-0.131 -0.008,-0.195 0.03,-0.382 0.057,-0.26 0.041,-0.107 0.082,-0.102 0.091,-0.092 0.574,-0.44 0.136,-0.173 0.021,-0.103 -0.035,-0.097 -0.144,-0.142 -0.088,-0.01 -0.015,-0.002 -3.445,3.238 -0.467,0.981 -0.692,2.388 -0.587,1.167 -0.693,0.671 -1.063,0.737 -1.149,0.595 -0.963,0.241 -0.189,0.101 -1.85,0.375 -0.394,-0.027 -0.085,0.638 0.778,0.979 0.155,0.632 -1.066,1.569 -6.536,3.819 -2.383,2.292 v 0.016 l 10e-4,0.306 0.048,0.261 0.122,0.231 0.25,0.225 0.415,0.168 0.31,0.174 0.223,0.234 0.115,0.423 0.181,0.388 0.3,0.435 1.515,1.435 0.218,0.368 0.167,0.633 0.031,0.388 -0.02,0.316 -0.439,2.022 -0.218,0.502 -0.449,0.715 -0.106,0.245 -0.076,0.25 -0.031,0.291 0.002,0.256 0.046,0.266 0.096,0.26 0.411,0.806 0.055,0.164 0.02,0.18 -0.004,0.419 -0.03,0.218 -0.142,0.46 -0.574,1.237 -0.112,0.474 -0.005,0.236 0.02,0.255 0.212,0.818 0.2,0.485 2.132,3.403 0.08,0.224 0.029,0.23 -0.036,0.24 -0.584,1.176 -0.127,0.469 0.007,0.22 0.09,0.25 0.343,0.605 0.078,0.27 -0.002,0.255 -0.206,0.679 -0.002,0.229 0.022,0.252 0.799,2.514 v 0.011 l 0.036,0.219 0.01,0.434 -0.039,0.226 -0.063,0.23 -0.078,0.475 0.019,0.265 0.061,0.266 0.242,0.296 0.381,0.272 1.662,0.649 0.229,0.229 0.165,0.43 0.031,0.332 -0.044,0.573 0.03,0.261 0.082,0.275 0.136,0.271 0.171,0.275 0.308,0.245 0.392,0.192 0.705,0.132 0.757,0.04 0.936,-0.078 0.457,-0.101 0.238,-0.108 0.203,-0.169 0.322,-0.433 0.178,-0.204 0.207,-0.169 0.257,-0.036 0.272,0.107 0.371,0.465 1.423,2.289 0.391,0.467 2.017,1.85 0.286,0.429 0.128,0.316 -0.652,3.426 -0.022,0.996 0.043,0.477 0.462,1.678 0.072,0.449 -0.003,0.449 -0.042,0.225 -0.068,0.23 -0.172,0.456 -0.062,0.231 -0.016,0.224 0.042,0.225 0.127,0.234 0.168,0.241 0.305,0.276 0.254,0.174 0.278,0.122 2.621,0.553 0.307,0.108 0.494,0.235 0.986,0.291 0.473,0.195 0.924,0.609 13.816,0.066 1.258,-2.859 0.652,-0.848 0.208,-0.077 1.56,-0.4 L 1.557,7.342 1.953,7.056 2.063,6.831 1.725,6.55 1.64,6.268 1.653,5.874 1.868,4.551 1.896,4.238 1.889,4.09 1.909,3.886 1.977,3.568 2.063,2.833 2.064,2.627 2.041,2.494 1.997,2.443 1.845,2.341 0.975,2.035 0.848,1.912 0.751,1.708 0.667,0.952 0.594,0.741 0.457,0.577 0.187,0.144 0.091,0.036 Z"
         style="fill:#ebedc3;fill-opacity:1;fill-rule:evenodd;stroke:none"
          /></g><g
       id="g38"
       transform="translate(157.70557,379.46778)"><path
         d="M 0,0 -0.075,0.036 -0.149,0.138 -0.237,0.373 -0.376,0.531 -0.475,0.608 -0.608,0.598 -0.674,0.46 -0.704,0.174 v -0.536 l -0.041,-0.271 -0.102,-0.153 -0.108,-0.057 -0.083,-0.06 -0.059,-0.329 -0.038,-0.081 -0.07,-0.062 -0.325,-0.158 -0.234,-0.159 -0.049,-0.127 0.069,-0.154 0.119,-0.117 1.354,-0.911 0.325,-0.316 0.129,-0.21 L 0.238,-3.731 0.284,-4.63 0.264,-4.785 0.01,-5.576 -0.021,-5.76 V -5.883 L 0.021,-5.938 0.223,-6.107 0.589,-6.281 0.751,-6.48 1.3,-7.406 1.416,-7.692 1.462,-7.876 1.377,-8.034 1.31,-8.137 0.233,-9.45 0.096,-9.685 0.061,-9.798 v -0.086 l 0.126,-0.174 0.301,-0.323 1.069,-0.843 0.061,-0.102 v -0.117 L 1.533,-11.565 1.295,-11.801 1.12,-11.928 0.903,-12.046 0.73,-12.097 0.548,-12.113 0.04,-12.046 h -0.144 l -0.083,-0.027 -0.053,-0.061 -0.076,-0.174 -0.236,-0.827 -0.025,-0.24 0.035,-0.168 0.093,-0.057 0.112,-0.05 0.137,-0.037 0.125,-0.06 0.115,-0.087 0.17,-0.21 0.165,-0.271 0.229,-0.297 0.126,-0.133 0.148,-0.117 0.198,-0.209 0.021,-0.108 -0.092,-0.096 -0.139,-0.057 -0.47,-0.397 -0.239,-0.534 -0.051,-0.305 0.04,-0.307 0.196,-0.449 0.683,-0.921 0.305,-0.521 0.066,-0.286 -0.015,-0.214 -0.545,-0.875 -0.055,-0.142 -0.069,-0.536 -0.289,-1.538 -1.39,-0.979 -1.075,-1.374 -0.795,-1.604 -0.186,-0.832 -0.173,-1.829 -0.264,-0.728 -0.511,-0.489 -0.63,-0.231 -1.408,-0.229 -0.826,-0.333 -2.014,-1.559 -0.583,-0.316 -1.819,-0.744 -1.049,-0.784 -1.87,-1.846 -1.8,-1.042 -1.362,-1.468 0.233,-0.947 0.386,-0.854 0.478,-0.811 0.352,-1.002 1.344,-6.014 -0.021,-0.347 -0.085,-0.568 -0.289,-1.102 -0.254,-0.557 -1.836,-2.43 -0.262,-0.265 -0.102,-0.041 -0.117,-0.005 -0.173,0.026 -0.272,-0.016 -0.236,-0.035 -0.367,-0.123 -0.167,-0.203 -0.137,-0.312 -0.188,-0.654 -0.147,-0.311 -0.176,-0.205 -0.364,-0.152 -0.176,-0.102 -0.448,-0.418 -0.107,-0.081 -0.142,-0.093 -0.215,-0.098 -0.96,-0.296 -0.156,-0.123 -0.098,-0.138 -0.022,-0.131 -0.008,-0.195 0.03,-0.382 0.057,-0.26 0.041,-0.107 0.082,-0.102 0.091,-0.092 0.574,-0.44 0.136,-0.173 0.021,-0.103 -0.035,-0.097 -0.144,-0.142 -0.088,-0.01 -0.015,-0.002 -3.445,3.238 -0.467,0.981 -0.692,2.388 -0.587,1.167 -0.693,0.671 -1.063,0.737 -1.149,0.595 -0.963,0.241 -0.189,0.101 -1.85,0.375 -0.394,-0.027 -0.085,0.638 0.778,0.979 0.155,0.632 -1.066,1.569 -6.536,3.819 -2.383,2.292 v 0.016 l 10e-4,0.306 0.048,0.261 0.122,0.231 0.25,0.225 0.415,0.168 0.31,0.174 0.223,0.234 0.115,0.423 0.181,0.388 0.3,0.435 1.515,1.435 0.218,0.368 0.167,0.633 0.031,0.388 -0.02,0.316 -0.439,2.022 -0.218,0.502 -0.449,0.715 -0.106,0.245 -0.076,0.25 -0.031,0.291 0.002,0.256 0.046,0.266 0.096,0.26 0.411,0.806 0.055,0.164 0.02,0.18 -0.004,0.419 -0.03,0.218 -0.142,0.46 -0.574,1.237 -0.112,0.474 -0.005,0.236 0.02,0.255 0.212,0.818 0.2,0.485 2.132,3.403 0.08,0.224 0.029,0.23 -0.036,0.24 -0.584,1.176 -0.127,0.469 0.007,0.22 0.09,0.25 0.343,0.605 0.078,0.27 -0.002,0.255 -0.206,0.679 -0.002,0.229 0.022,0.252 0.799,2.514 v 0.011 l 0.036,0.219 0.01,0.434 -0.039,0.226 -0.063,0.23 -0.078,0.475 0.019,0.265 0.061,0.266 0.242,0.296 0.381,0.272 1.662,0.649 0.229,0.229 0.165,0.43 0.031,0.332 -0.044,0.573 0.03,0.261 0.082,0.275 0.136,0.271 0.171,0.275 0.308,0.245 0.392,0.192 0.705,0.132 0.757,0.04 0.936,-0.078 0.457,-0.101 0.238,-0.108 0.203,-0.169 0.322,-0.433 0.178,-0.204 0.207,-0.169 0.257,-0.036 0.272,0.107 0.371,0.465 1.423,2.289 0.391,0.467 2.017,1.85 0.286,0.429 0.128,0.316 -0.652,3.426 -0.022,0.996 0.043,0.477 0.462,1.678 0.072,0.449 -0.003,0.449 -0.042,0.225 -0.068,0.23 -0.172,0.456 -0.062,0.231 -0.016,0.224 0.042,0.225 0.127,0.234 0.168,0.241 0.305,0.276 0.254,0.174 0.278,0.122 2.621,0.553 0.307,0.108 0.494,0.235 0.986,0.291 0.473,0.195 0.924,0.609 13.816,0.066 1.258,-2.859 0.652,-0.848 0.208,-0.077 1.56,-0.4 L 1.557,7.342 1.953,7.056 2.063,6.831 1.725,6.55 1.64,6.268 1.653,5.874 1.868,4.551 1.896,4.238 1.889,4.09 1.909,3.886 1.977,3.568 2.063,2.833 2.064,2.627 2.041,2.494 1.997,2.443 1.845,2.341 0.975,2.035 0.848,1.912 0.751,1.708 0.667,0.952 0.594,0.741 0.457,0.577 0.187,0.144 0.091,0.036 Z"
         style="fill:none;stroke:#999999;stroke-width:0.25;stroke-linecap:round;stroke-linejoin:round;stroke-miterlimit:4;stroke-dasharray:none;stroke-opacity:1"
         id="path40" /></g><g
       id="g42"
       transform="translate(192.12447,479.56648)"><path id="Nimba"
         d="m 0,0 -0.352,-2.476 0.41,-1.807 1.225,-1.496 2.109,-1.56 1.977,-1.267 2.738,-1.38 1.182,-2.325 1.34,-4.667 0.793,-6.403 0.351,-1.281 0.434,-0.788 1.117,-1.593 0.423,-0.871 0.515,-2.047 0.307,-0.522 0.786,-0.986 0.264,-0.519 0.034,-0.437 -0.139,-0.836 0.054,-0.423 0.231,-0.413 0.965,-0.975 0.402,-0.686 0.18,-0.614 0.091,-1.61 1.121,-6.293 -0.166,-1.59 -0.492,-0.62 -1.337,-1.044 -0.355,-0.566 -0.081,-1.17 0.081,-1.084 -0.061,-1.033 -0.836,-1.821 0.322,-0.495 0.535,-0.358 0.319,-0.385 0.049,-0.893 -0.108,-0.924 -0.548,-1.981 -0.819,-1.912 -0.935,-1.446 -5.888,-6.598 -1.288,-1.444 -4.732,-3.763 -0.891,-1.076 -0.152,0.007 -1.09,-0.608 -0.071,-0.021 0.071,-0.102 -0.295,-0.918 -0.139,-0.283 -0.3,-0.185 -0.789,-0.13 -0.312,-0.143 -1.611,-2.048 -0.033,0.002 -1.085,-2.436 -1.542,-5.248 -3.931,-7.906 -1.035,-1.585 -1.484,-1.733 -1.734,-1.43 -1.816,-0.675 -0.948,-0.511 -0.811,-2.146 -0.982,-0.816 0.741,-1.065 0.148,-1.629 -0.291,-1.697 -0.586,-1.275 -1.029,-0.694 -2.651,-0.296 -1.136,-0.39 -0.831,-1.119 0.531,-0.809 0.805,-0.637 -0.018,-0.598 -1.202,-1.547 -0.37,-1.515 0.353,-0.697 0.961,0.901 0.989,-0.905 0.52,-1.025 -0.145,-1.214 -0.99,-1.481 -0.644,-0.617 -1.058,-0.516 -7.593,0.179 -1.738,-0.417 0.289,1.538 0.069,0.536 0.055,0.143 0.545,0.875 0.015,0.214 -0.066,0.286 -0.305,0.52 -0.683,0.921 -0.196,0.449 -0.04,0.307 0.051,0.306 0.239,0.533 0.47,0.397 0.139,0.057 0.092,0.097 -0.021,0.107 -0.198,0.209 -0.147,0.117 -0.127,0.133 -0.229,0.297 -0.165,0.271 -0.17,0.21 -0.115,0.087 -0.125,0.061 -0.137,0.036 -0.112,0.051 -0.093,0.056 -0.035,0.168 0.025,0.241 0.236,0.827 0.076,0.174 0.054,0.06 0.083,0.027 h 0.143 l 0.508,-0.067 0.183,0.017 0.172,0.05 0.217,0.119 0.175,0.127 0.238,0.235 0.085,0.122 v 0.117 l -0.061,0.103 -1.069,0.843 -0.3,0.323 -0.127,0.174 v 0.086 l 0.035,0.113 0.137,0.234 1.077,1.314 0.067,0.102 0.085,0.158 -0.046,0.184 -0.116,0.286 -0.549,0.926 -0.162,0.199 -0.366,0.174 -0.201,0.169 -0.042,0.056 v 0.123 l 0.03,0.183 0.254,0.791 0.02,0.155 -0.046,0.899 -0.055,0.204 -0.129,0.21 -0.325,0.316 -1.354,0.912 -0.119,0.117 -0.069,0.153 0.049,0.127 0.234,0.159 0.325,0.158 0.07,0.062 0.038,0.081 0.059,0.329 0.083,0.061 0.108,0.056 0.102,0.154 0.041,0.27 v 0.536 l 0.03,0.286 0.066,0.138 0.133,0.011 0.099,-0.077 0.139,-0.159 0.088,-0.235 0.074,-0.102 0.075,-0.036 0.091,0.036 0.097,0.108 0.269,0.434 0.137,0.164 0.073,0.211 0.084,0.755 0.097,0.204 0.127,0.124 0.87,0.305 0.152,0.103 0.044,0.051 0.024,0.132 -0.002,0.206 -0.086,0.736 -0.068,0.317 -0.02,0.204 0.007,0.149 -0.028,0.312 -0.215,1.323 -0.013,0.394 0.085,0.282 0.338,0.281 -0.11,0.225 -0.396,0.286 -1.233,0.582 -1.56,0.401 -0.208,0.077 -0.652,0.847 -1.258,2.86 0.077,1.943 0.166,1.017 0.007,0.275 -0.079,1.055 0.025,0.424 0.084,0.378 0.486,1.427 0.333,1.591 -0.009,0.22 -0.086,0.25 -0.269,0.2 -0.183,0.093 -0.136,0.014 -0.36,-0.127 -0.145,-0.026 -0.135,0.005 -0.129,0.051 -0.071,0.051 -0.026,0.135 0.039,0.148 0.557,1.089 0.087,0.337 0.314,1.867 0.224,0.594 0.109,0.2 0.72,0.884 0.102,0.082 0.157,0.092 0.897,0.332 0.13,0.099 0.09,0.107 0.157,0.343 0.035,0.128 0.02,0.122 0.139,0.557 0.164,0.457 -0.026,0.174 -0.111,0.194 -0.39,0.281 -0.293,0.108 -0.487,0.071 -0.57,-0.21 -0.153,-0.107 -0.362,-0.153 -0.764,0.148 -2.976,0.956 0.654,-0.015 0.293,0.132 0.295,0.312 0.359,1.07 -0.019,0.45 -0.467,0.794 v 0.343 l 0.508,0.593 0.217,0.349 0.167,0.404 0.244,0.972 -0.125,0.41 0.005,0.317 0.432,0.634 0.168,0.328 0.122,0.321 0.148,0.309 0.482,0.419 0.135,0.286 -0.014,0.358 -0.217,0.425 -0.205,0.251 -0.044,0.323 0.226,0.328 0.254,0.255 0.266,0.23 0.218,0.23 0.485,0.42 0.194,0.313 0.06,0.461 -0.3,1.36 -0.06,0.646 0.056,0.706 0.364,1.873 -0.009,0.502 -0.545,0.564 -0.33,0.562 -0.173,0.118 -0.127,0.056 -0.284,0.02 -0.209,0.041 -0.289,0.108 -0.167,0.263 -0.198,0.721 -0.172,0.281 -0.237,0.256 -0.215,0.322 -0.155,0.508 -0.17,0.363 -0.213,0.287 -0.593,0.302 -0.263,0.173 -0.365,0.544 -0.411,0.446 -0.013,0.281 1.1,1.122 0.132,0.205 0.015,0.03 0.02,0.901 0.08,0.59 0.299,0.808 0.026,0.665 0.14,0.994 1.166,1.629 2.151,7.181 0.236,0.608 0.369,0.122 0.921,0.158 0.87,0.273 0.907,0.662 0.826,0.75 0.904,0.498 1.124,-0.092 0.528,0.304 1.452,0.433 0.291,0.034 0.217,1.035 0.301,0.095 0.69,-0.311 0.353,1.553 0.839,-0.515 1.243,-1.986 0.866,0.102 2.837,1.089 0.724,0.423 0.423,1.31 -0.297,1.253 -0.485,1.191 -0.136,1.123 0.312,0.71 0.589,0.915 1.193,1.477 0.614,0.393 1.071,0.31 0.554,0.509 0.248,0.588 0.098,1.348 0.234,0.614 0.392,0.325 1.828,1.103 1.111,1.198 0.649,1.198 0.254,1.311 -0.07,1.54 -0.177,0.301 -0.294,0.085 -0.265,0.12 -0.074,0.409 0.118,0.38 0.387,0.683 0.095,0.375 0.16,2.285 0.452,1.37 1.717,2.093 0.517,1.319 z"
         style="fill:#fff3da;fill-opacity:1;fill-rule:evenodd;stroke:none"
          /></g><g
       id="g46"
       transform="translate(192.12447,479.56648)"><path
         d="m 0,0 -0.352,-2.476 0.41,-1.807 1.225,-1.496 2.109,-1.56 1.977,-1.267 2.738,-1.38 1.182,-2.325 1.34,-4.667 0.793,-6.403 0.351,-1.281 0.434,-0.788 1.117,-1.593 0.423,-0.871 0.515,-2.047 0.307,-0.522 0.786,-0.986 0.264,-0.519 0.034,-0.437 -0.139,-0.836 0.054,-0.423 0.231,-0.413 0.965,-0.975 0.402,-0.686 0.18,-0.614 0.091,-1.61 1.121,-6.293 -0.166,-1.59 -0.492,-0.62 -1.337,-1.044 -0.355,-0.566 -0.081,-1.17 0.081,-1.084 -0.061,-1.033 -0.836,-1.821 0.322,-0.495 0.535,-0.358 0.319,-0.385 0.049,-0.893 -0.108,-0.924 -0.548,-1.981 -0.819,-1.912 -0.935,-1.446 -5.888,-6.598 -1.288,-1.444 -4.732,-3.763 -0.891,-1.076 -0.152,0.007 -1.09,-0.608 -0.071,-0.021 0.071,-0.102 -0.295,-0.918 -0.139,-0.283 -0.3,-0.185 -0.789,-0.13 -0.312,-0.143 -1.611,-2.048 -0.033,0.002 -1.085,-2.436 -1.542,-5.248 -3.931,-7.906 -1.035,-1.585 -1.484,-1.733 -1.734,-1.43 -1.816,-0.675 -0.948,-0.511 -0.811,-2.146 -0.982,-0.816 0.741,-1.065 0.148,-1.629 -0.291,-1.697 -0.586,-1.275 -1.029,-0.694 -2.651,-0.296 -1.136,-0.39 -0.831,-1.119 0.531,-0.809 0.805,-0.637 -0.018,-0.598 -1.202,-1.547 -0.37,-1.515 0.353,-0.697 0.961,0.901 0.989,-0.905 0.52,-1.025 -0.145,-1.214 -0.99,-1.481 -0.644,-0.617 -1.058,-0.516 -7.593,0.179 -1.738,-0.417 0.289,1.538 0.069,0.536 0.055,0.143 0.545,0.875 0.015,0.214 -0.066,0.286 -0.305,0.52 -0.683,0.921 -0.196,0.449 -0.04,0.307 0.051,0.306 0.239,0.533 0.47,0.397 0.139,0.057 0.092,0.097 -0.021,0.107 -0.198,0.209 -0.147,0.117 -0.127,0.133 -0.229,0.297 -0.165,0.271 -0.17,0.21 -0.115,0.087 -0.125,0.061 -0.137,0.036 -0.112,0.051 -0.093,0.056 -0.035,0.168 0.025,0.241 0.236,0.827 0.076,0.174 0.054,0.06 0.083,0.027 h 0.143 l 0.508,-0.067 0.183,0.017 0.172,0.05 0.217,0.119 0.175,0.127 0.238,0.235 0.085,0.122 v 0.117 l -0.061,0.103 -1.069,0.843 -0.3,0.323 -0.127,0.174 v 0.086 l 0.035,0.113 0.137,0.234 1.077,1.314 0.067,0.102 0.085,0.158 -0.046,0.184 -0.116,0.286 -0.549,0.926 -0.162,0.199 -0.366,0.174 -0.201,0.169 -0.042,0.056 v 0.123 l 0.03,0.183 0.254,0.791 0.02,0.155 -0.046,0.899 -0.055,0.204 -0.129,0.21 -0.325,0.316 -1.354,0.912 -0.119,0.117 -0.069,0.153 0.049,0.127 0.234,0.159 0.325,0.158 0.07,0.062 0.038,0.081 0.059,0.329 0.083,0.061 0.108,0.056 0.102,0.154 0.041,0.27 v 0.536 l 0.03,0.286 0.066,0.138 0.133,0.011 0.099,-0.077 0.139,-0.159 0.088,-0.235 0.074,-0.102 0.075,-0.036 0.091,0.036 0.097,0.108 0.269,0.434 0.137,0.164 0.073,0.211 0.084,0.755 0.097,0.204 0.127,0.124 0.87,0.305 0.152,0.103 0.044,0.051 0.024,0.132 -0.002,0.206 -0.086,0.736 -0.068,0.317 -0.02,0.204 0.007,0.149 -0.028,0.312 -0.215,1.323 -0.013,0.394 0.085,0.282 0.338,0.281 -0.11,0.225 -0.396,0.286 -1.233,0.582 -1.56,0.401 -0.208,0.077 -0.652,0.847 -1.258,2.86 0.077,1.943 0.166,1.017 0.007,0.275 -0.079,1.055 0.025,0.424 0.084,0.378 0.486,1.427 0.333,1.591 -0.009,0.22 -0.086,0.25 -0.269,0.2 -0.183,0.093 -0.136,0.014 -0.36,-0.127 -0.145,-0.026 -0.135,0.005 -0.129,0.051 -0.071,0.051 -0.026,0.135 0.039,0.148 0.557,1.089 0.087,0.337 0.314,1.867 0.224,0.594 0.109,0.2 0.72,0.884 0.102,0.082 0.157,0.092 0.897,0.332 0.13,0.099 0.09,0.107 0.157,0.343 0.035,0.128 0.02,0.122 0.139,0.557 0.164,0.457 -0.026,0.174 -0.111,0.194 -0.39,0.281 -0.293,0.108 -0.487,0.071 -0.57,-0.21 -0.153,-0.107 -0.362,-0.153 -0.764,0.148 -2.976,0.956 0.654,-0.015 0.293,0.132 0.295,0.312 0.359,1.07 -0.019,0.45 -0.467,0.794 v 0.343 l 0.508,0.593 0.217,0.349 0.167,0.404 0.244,0.972 -0.125,0.41 0.005,0.317 0.432,0.634 0.168,0.328 0.122,0.321 0.148,0.309 0.482,0.419 0.135,0.286 -0.014,0.358 -0.217,0.425 -0.205,0.251 -0.044,0.323 0.226,0.328 0.254,0.255 0.266,0.23 0.218,0.23 0.485,0.42 0.194,0.313 0.06,0.461 -0.3,1.36 -0.06,0.646 0.056,0.706 0.364,1.873 -0.009,0.502 -0.545,0.564 -0.33,0.562 -0.173,0.118 -0.127,0.056 -0.284,0.02 -0.209,0.041 -0.289,0.108 -0.167,0.263 -0.198,0.721 -0.172,0.281 -0.237,0.256 -0.215,0.322 -0.155,0.508 -0.17,0.363 -0.213,0.287 -0.593,0.302 -0.263,0.173 -0.365,0.544 -0.411,0.446 -0.013,0.281 1.1,1.122 0.132,0.205 0.015,0.03 0.02,0.901 0.08,0.59 0.299,0.808 0.026,0.665 0.14,0.994 1.166,1.629 2.151,7.181 0.236,0.608 0.369,0.122 0.921,0.158 0.87,0.273 0.907,0.662 0.826,0.75 0.904,0.498 1.124,-0.092 0.528,0.304 1.452,0.433 0.291,0.034 0.217,1.035 0.301,0.095 0.69,-0.311 0.353,1.553 0.839,-0.515 1.243,-1.986 0.866,0.102 2.837,1.089 0.724,0.423 0.423,1.31 -0.297,1.253 -0.485,1.191 -0.136,1.123 0.312,0.71 0.589,0.915 1.193,1.477 0.614,0.393 1.071,0.31 0.554,0.509 0.248,0.588 0.098,1.348 0.234,0.614 0.392,0.325 1.828,1.103 1.111,1.198 0.649,1.198 0.254,1.311 -0.07,1.54 -0.177,0.301 -0.294,0.085 -0.265,0.12 -0.074,0.409 0.118,0.38 0.387,0.683 0.095,0.375 0.16,2.285 0.452,1.37 1.717,2.093 0.517,1.319 z"
         style="fill:none;stroke:#999999;stroke-width:0.25;stroke-linecap:round;stroke-linejoin:round;stroke-miterlimit:4;stroke-dasharray:none;stroke-opacity:1"
         id="path48" /></g><g
       id="g50"
       transform="translate(71.681572,419.36528)"><path id="Montserrado"
         d="m 0,0 0.625,0.041 0.543,0.092 0.31,0.021 0.671,-0.205 1.075,-0.907 0.222,-1.632 -0.139,-0.614 -3.292,-6.361 -0.244,-0.599 -0.123,-0.429 0.073,-0.48 0.162,-0.493 0.117,-0.23 0.78,-0.996 0.288,-0.512 0.2,-0.528 0.154,-0.547 0.235,-1.489 0.095,-3.857 -0.124,-0.996 -0.155,-0.666 -0.209,-0.256 -0.487,-0.434 -0.284,-0.168 -0.304,-0.139 -2.281,-0.753 -0.234,-0.127 -0.302,-0.352 -0.356,-0.537 -1.085,-2.093 -0.427,-0.455 -0.243,-0.184 -0.547,-0.311 -3.02,-1.157 -0.512,-0.26 -2.109,-1.621 -0.545,-0.236 -0.767,-0.256 -0.294,-0.142 -0.315,-0.209 -0.484,-0.425 -0.247,-0.303 -0.18,-0.301 -1.354,-4.453 -0.002,-0.005 -1.48,0.367 -8.444,4.314 -1.279,1.18 0.49,1.119 0.314,-0.539 0.342,-0.379 0.477,-0.257 0.701,-0.175 -1.093,1.819 -0.216,1.588 0.656,1.474 1.503,1.502 h -0.936 l -0.682,-0.192 -0.541,-0.333 -0.525,-0.418 -0.41,0.822 0.01,0.015 0.026,0.037 0.729,1.796 0.081,0.803 -0.135,0.552 -0.628,1.816 -0.096,0.516 -0.043,0.528 0.027,0.639 0.061,0.404 0.193,0.342 0.337,0.349 0.709,0.435 0.807,0.276 1.553,0.296 0.24,0.092 0.965,0.721 1.029,0.972 0.597,0.471 0.589,0.38 0.466,0.163 0.368,0.057 0.336,-0.051 0.599,-0.271 2.649,-1.711 0.232,-0.205 0.2,-0.219 1.096,-0.511 0.753,0.157 1.515,1.178 0.781,0.767 10e-4,0.453 -0.579,0.806 -1.723,1.757 -0.269,0.494 -0.072,2.219 0.072,0.709 0.102,0.378 0.254,0.628 0.091,0.384 0.08,1.285 -0.08,0.026 0.394,0.588 1.121,1.325 0.234,0.585 -0.349,1.379 -0.099,0.777 0.244,0.341 0.508,0.358 0.088,0.823 -0.037,0.91 0.132,0.611 0.436,0.245 1.8,0.205 1.288,0.523 2.046,-2.426 0.217,-0.559 0.668,-0.511 0.787,-0.266 z"
         style="fill:#ebedc3;fill-opacity:1;fill-rule:evenodd;stroke:none"
         /></g><g
       id="g54"
       transform="translate(71.681572,419.36528)"><path
         d="m 0,0 0.625,0.041 0.543,0.092 0.31,0.021 0.671,-0.205 1.075,-0.907 0.222,-1.632 -0.139,-0.614 -3.292,-6.361 -0.244,-0.599 -0.123,-0.429 0.073,-0.48 0.162,-0.493 0.117,-0.23 0.78,-0.996 0.288,-0.512 0.2,-0.528 0.154,-0.547 0.235,-1.489 0.095,-3.857 -0.124,-0.996 -0.155,-0.666 -0.209,-0.256 -0.487,-0.434 -0.284,-0.168 -0.304,-0.139 -2.281,-0.753 -0.234,-0.127 -0.302,-0.352 -0.356,-0.537 -1.085,-2.093 -0.427,-0.455 -0.243,-0.184 -0.547,-0.311 -3.02,-1.157 -0.512,-0.26 -2.109,-1.621 -0.545,-0.236 -0.767,-0.256 -0.294,-0.142 -0.315,-0.209 -0.484,-0.425 -0.247,-0.303 -0.18,-0.301 -1.354,-4.453 -0.002,-0.005 -1.48,0.367 -8.444,4.314 -1.279,1.18 0.49,1.119 0.314,-0.539 0.342,-0.379 0.477,-0.257 0.701,-0.175 -1.093,1.819 -0.216,1.588 0.656,1.474 1.503,1.502 h -0.936 l -0.682,-0.192 -0.541,-0.333 -0.525,-0.418 -0.41,0.822 0.01,0.015 0.026,0.037 0.729,1.796 0.081,0.803 -0.135,0.552 -0.628,1.816 -0.096,0.516 -0.043,0.528 0.027,0.639 0.061,0.404 0.193,0.342 0.337,0.349 0.709,0.435 0.807,0.276 1.553,0.296 0.24,0.092 0.965,0.721 1.029,0.972 0.597,0.471 0.589,0.38 0.466,0.163 0.368,0.057 0.336,-0.051 0.599,-0.271 2.649,-1.711 0.232,-0.205 0.2,-0.219 1.096,-0.511 0.753,0.157 1.515,1.178 0.781,0.767 10e-4,0.453 -0.579,0.806 -1.723,1.757 -0.269,0.494 -0.072,2.219 0.072,0.709 0.102,0.378 0.254,0.628 0.091,0.384 0.08,1.285 -0.08,0.026 0.394,0.588 1.121,1.325 0.234,0.585 -0.349,1.379 -0.099,0.777 0.244,0.341 0.508,0.358 0.088,0.823 -0.037,0.91 0.132,0.611 0.436,0.245 1.8,0.205 1.288,0.523 2.046,-2.426 0.217,-0.559 0.668,-0.511 0.787,-0.266 z"
         style="fill:none;stroke:#999999;stroke-width:0.25;stroke-linecap:round;stroke-linejoin:round;stroke-miterlimit:4;stroke-dasharray:none;stroke-opacity:1"
         id="path56" /></g><g
       id="g58"
       transform="translate(240.39987,293.18558)"><path id="Maryland"
         d="M 0,0 0.273,0.051 0.571,0.065 1.016,0.03 1.208,0.051 1.635,0.173 1.892,0.178 2.616,-0.046 2.962,-0.071 3.29,0.01 3.539,0.097 4.067,0.404 4.77,1.046 4.984,1.179 5.227,1.255 5.444,1.25 5.717,1.158 5.931,1.112 6.166,1.143 6.362,1.234 6.55,1.367 6.908,1.377 7.445,1.234 9.463,0.152 10.345,0.04 l 0.535,-0.163 0.321,-0.214 0.185,-0.214 0.559,-1.066 0.307,-0.271 0.386,-0.173 1.347,-0.331 0.481,-0.25 0.208,-0.158 0.028,-0.021 -10e-4,-0.077 0.328,-0.759 0.498,-0.474 0.515,-0.388 0.393,-0.477 0.175,-0.591 0.288,-3.414 -0.288,-14.064 0.095,-0.591 0.176,-0.607 0.119,-0.683 -0.126,-1.664 0.468,-1.327 0.091,-0.616 -0.204,-0.65 -0.683,-1.226 -0.088,-0.665 0.355,-0.772 2.168,-1.482 -0.021,-0.005 -3.423,-0.363 -0.98,0.145 -1.536,0.646 -0.836,0.148 H 7.712 l -0.544,0.208 -0.288,0.465 -0.211,0.462 -0.301,0.211 -1.066,0.08 -2.57,1.03 -0.804,0.486 -0.741,0.642 -0.389,0.73 -0.363,0.89 -0.594,0.754 -0.729,0.223 0.002,0.006 0.224,0.518 0.958,1.54 0.237,0.463 0.178,0.494 0.091,0.466 -0.051,2.375 0.112,1.264 0.467,1.74 0.076,0.559 -0.127,0.5 -0.274,0.658 -1.54,2.657 -0.944,1.29 -2.868,4.854 -0.431,0.552 -0.478,0.504 -0.55,0.474 -0.494,0.348 -0.956,0.53 -4.242,1.857 -4.676,1.571 -0.266,0.152 -0.481,0.388 -0.342,0.439 -0.135,0.239 -0.117,0.321 -0.091,0.363 -0.066,0.561 -0.011,0.637 2.306,5.713 0.958,1.755 0.005,0.015 1.57,2.599 0.427,0.565 0.215,0.372 0.147,0.389 0.109,0.443 -0.024,0.842 -0.066,0.459 -0.706,1.729 10.639,-1.867 0.476,-0.163 0.259,-0.163 0.285,-0.296 0.155,-0.301 0.104,-0.346 L -0.87,3.998 -0.814,3.483 -0.733,3.208 -0.718,2.964 -0.738,2.755 -0.824,2.49 -0.84,2.245 -0.824,2.004 -0.769,1.795 -0.611,0.816 -0.437,0.261 -0.226,0.056 Z"
         style="fill:#fcd4c7;fill-opacity:1;fill-rule:evenodd;stroke:none"
          /></g><g
       id="g62"
       transform="translate(240.39987,293.18558)"><path
         d="M 0,0 0.273,0.051 0.571,0.065 1.016,0.03 1.208,0.051 1.635,0.173 1.892,0.178 2.616,-0.046 2.962,-0.071 3.29,0.01 3.539,0.097 4.067,0.404 4.77,1.046 4.984,1.179 5.227,1.255 5.444,1.25 5.717,1.158 5.931,1.112 6.166,1.143 6.362,1.234 6.55,1.367 6.908,1.377 7.445,1.234 9.463,0.152 10.345,0.04 l 0.535,-0.163 0.321,-0.214 0.185,-0.214 0.559,-1.066 0.307,-0.271 0.386,-0.173 1.347,-0.331 0.481,-0.25 0.208,-0.158 0.028,-0.021 -10e-4,-0.077 0.328,-0.759 0.498,-0.474 0.515,-0.388 0.393,-0.477 0.175,-0.591 0.288,-3.414 -0.288,-14.064 0.095,-0.591 0.176,-0.607 0.119,-0.683 -0.126,-1.664 0.468,-1.327 0.091,-0.616 -0.204,-0.65 -0.683,-1.226 -0.088,-0.665 0.355,-0.772 2.168,-1.482 -0.021,-0.005 -3.423,-0.363 -0.98,0.145 -1.536,0.646 -0.836,0.148 H 7.712 l -0.544,0.208 -0.288,0.465 -0.211,0.462 -0.301,0.211 -1.066,0.08 -2.57,1.03 -0.804,0.486 -0.741,0.642 -0.389,0.73 -0.363,0.89 -0.594,0.754 -0.729,0.223 0.002,0.006 0.224,0.518 0.958,1.54 0.237,0.463 0.178,0.494 0.091,0.466 -0.051,2.375 0.112,1.264 0.467,1.74 0.076,0.559 -0.127,0.5 -0.274,0.658 -1.54,2.657 -0.944,1.29 -2.868,4.854 -0.431,0.552 -0.478,0.504 -0.55,0.474 -0.494,0.348 -0.956,0.53 -4.242,1.857 -4.676,1.571 -0.266,0.152 -0.481,0.388 -0.342,0.439 -0.135,0.239 -0.117,0.321 -0.091,0.363 -0.066,0.561 -0.011,0.637 2.306,5.713 0.958,1.755 0.005,0.015 1.57,2.599 0.427,0.565 0.215,0.372 0.147,0.389 0.109,0.443 -0.024,0.842 -0.066,0.459 -0.706,1.729 10.639,-1.867 0.476,-0.163 0.259,-0.163 0.285,-0.296 0.155,-0.301 0.104,-0.346 L -0.87,3.998 -0.814,3.483 -0.733,3.208 -0.718,2.964 -0.738,2.755 -0.824,2.49 -0.84,2.245 -0.824,2.004 -0.769,1.795 -0.611,0.816 -0.437,0.261 -0.226,0.056 Z"
         style="fill:none;stroke:#999999;stroke-width:0.25;stroke-linecap:round;stroke-linejoin:round;stroke-miterlimit:4;stroke-dasharray:none;stroke-opacity:1"
         id="path64" /></g><g
       id="g66"
       transform="translate(114.95647,411.15628)"><path id="Margibi"
         d="m 0,0 -4.903,-5.93 -1.398,-1.356 -0.261,-0.051 -0.254,-0.015 -0.238,0.02 -0.244,0.061 -0.236,0.093 -1.269,0.686 -0.325,0.092 -0.355,0.031 -0.552,-0.071 -0.366,-0.164 -0.325,-0.252 -0.609,-0.69 -1.731,-1.561 -0.61,-0.388 -0.462,-0.205 -0.514,0.006 -0.515,0.087 -1.801,0.541 -0.944,0.031 -0.826,-0.153 -1.06,0.168 -0.201,-0.077 -0.55,-0.536 -0.236,-0.327 -0.306,-0.291 -0.524,-0.411 -0.522,-0.164 -0.941,-0.143 -0.52,0.026 -0.39,0.107 -0.22,0.184 -0.379,0.462 -0.199,0.173 -0.243,0.149 -1.013,0.322 -0.167,0.117 -0.127,0.164 -0.09,0.168 -0.113,0.159 -0.166,0.15 -0.472,0.296 -0.183,0.2 -0.122,0.275 -0.023,0.276 0.05,0.251 0.085,0.199 0.025,0.159 -0.039,0.139 -0.259,0.123 -0.706,0.23 -1.062,-0.385 -2.353,-0.455 -0.549,-0.296 -0.295,-0.205 0.138,-0.48 0.201,-0.174 0.254,-0.089 0.217,-0.168 0.111,-0.613 0.131,-0.287 0.567,-0.301 0.179,-0.22 v -0.308 l -0.248,-0.598 -0.188,-0.695 -0.312,-0.567 -0.282,-0.728 -2.036,-2.184 -0.143,-0.3 -0.044,-0.359 0.051,-0.364 0.302,-0.996 0.005,-0.389 -0.224,-0.533 -0.407,-0.648 -1.128,-1.049 -0.721,-0.399 -0.653,-0.24 -0.237,-0.174 -0.017,-0.265 0.052,-0.287 -0.011,-0.292 0.025,-0.266 0.139,-0.25 0.218,-0.226 0.122,-0.332 -0.017,-0.383 -0.224,-0.4 -0.328,-0.179 -0.391,-0.132 -0.223,-0.2 -0.308,-0.694 -0.983,-1.223 -0.143,-0.281 -0.12,-0.327 -0.24,-1.947 0.025,-0.389 0.246,-0.63 0.074,-0.306 -0.086,-0.342 -0.466,-0.674 -0.211,-0.431 -0.088,-0.337 -0.659,-1.289 -0.025,-0.087 -0.004,-0.01 -0.062,0.048 -0.826,0.893 -0.984,0.767 -2.13,1.319 -1.084,0.45 -1.261,0.075 v -0.493 l 3.39,-1.743 1.493,-1.244 0.488,-1.512 -0.994,1.229 -1.818,1.104 -2.085,0.847 -11.799,2.928 0.002,0.005 1.354,4.453 0.18,0.301 0.247,0.303 0.484,0.425 0.315,0.209 0.294,0.142 0.767,0.256 0.545,0.236 2.109,1.621 0.512,0.26 3.02,1.157 0.547,0.311 0.243,0.184 0.427,0.455 1.085,2.093 0.356,0.537 0.302,0.352 0.234,0.127 2.282,0.753 0.303,0.139 0.284,0.168 0.487,0.434 0.209,0.256 0.155,0.666 0.124,0.996 -0.095,3.857 -0.235,1.489 -0.154,0.547 -0.2,0.528 -0.288,0.512 -0.78,0.996 -0.117,0.23 -0.162,0.493 -0.073,0.48 0.124,0.429 0.243,0.599 3.292,6.361 0.139,0.614 -0.222,1.632 2.177,0.031 1.401,0.194 1.016,0.057 0.413,-0.108 0.53,-0.194 0.888,-0.465 0.459,-0.297 0.325,-0.266 1.109,-1.142 0.548,-0.455 0.57,-0.383 0.549,-0.304 8.082,-2.69 0.523,-0.052 0.529,0.052 0.887,0.255 1.495,0.82 0.734,0.286 0.247,0.051 0.59,-0.051 2.772,-0.661 1.471,-0.491 0.247,-0.133 0.475,-0.337 0.225,-0.21 1.131,-1.561 0.47,-0.516 0.232,-0.176 0.231,-0.137 0.349,-0.026 0.444,0.072 0.755,0.342 0.371,0.283 0.228,0.266 0.097,0.24 0.168,0.772 0.106,0.973 0.122,0.501 0.196,0.537 0.234,0.487 0.166,0.246 0.959,0.899 0.172,0.252 0.077,0.261 0.021,0.266 -0.178,1.526 0.003,0.588 0.048,0.322 0.081,0.306 0.101,0.277 0.136,0.245 0.33,0.467 0.45,0.47 0.274,0.185 0.239,0.102 0.264,0.03 0.264,-0.02 L -2.617,9.089 -2.083,8.91 -1.571,8.659 -0.477,7.962 0.395,7.277 0.85,6.812 1.068,6.52 1.246,6.218 1.403,5.844 1.539,5.398 1.647,4.75 1.677,4.294 1.664,3.919 1.329,2.917 Z"
         style="fill:#fff3da;fill-opacity:1;fill-rule:evenodd;stroke:none"
          /></g><g
       id="g70"
       transform="translate(114.95647,411.15628)"><path
         d="m 0,0 -4.903,-5.93 -1.398,-1.356 -0.261,-0.051 -0.254,-0.015 -0.238,0.02 -0.244,0.061 -0.236,0.093 -1.269,0.686 -0.325,0.092 -0.355,0.031 -0.552,-0.071 -0.366,-0.164 -0.325,-0.252 -0.609,-0.69 -1.731,-1.561 -0.61,-0.388 -0.462,-0.205 -0.514,0.006 -0.515,0.087 -1.801,0.541 -0.944,0.031 -0.826,-0.153 -1.06,0.168 -0.201,-0.077 -0.55,-0.536 -0.236,-0.327 -0.306,-0.291 -0.524,-0.411 -0.522,-0.164 -0.941,-0.143 -0.52,0.026 -0.39,0.107 -0.22,0.184 -0.379,0.462 -0.199,0.173 -0.243,0.149 -1.013,0.322 -0.167,0.117 -0.127,0.164 -0.09,0.168 -0.113,0.159 -0.166,0.15 -0.472,0.296 -0.183,0.2 -0.122,0.275 -0.023,0.276 0.05,0.251 0.085,0.199 0.025,0.159 -0.039,0.139 -0.259,0.123 -0.706,0.23 -1.062,-0.385 -2.353,-0.455 -0.549,-0.296 -0.295,-0.205 0.138,-0.48 0.201,-0.174 0.254,-0.089 0.217,-0.168 0.111,-0.613 0.131,-0.287 0.567,-0.301 0.179,-0.22 v -0.308 l -0.248,-0.598 -0.188,-0.695 -0.312,-0.567 -0.282,-0.728 -2.036,-2.184 -0.143,-0.3 -0.044,-0.359 0.051,-0.364 0.302,-0.996 0.005,-0.389 -0.224,-0.533 -0.407,-0.648 -1.128,-1.049 -0.721,-0.399 -0.653,-0.24 -0.237,-0.174 -0.017,-0.265 0.052,-0.287 -0.011,-0.292 0.025,-0.266 0.139,-0.25 0.218,-0.226 0.122,-0.332 -0.017,-0.383 -0.224,-0.4 -0.328,-0.179 -0.391,-0.132 -0.223,-0.2 -0.308,-0.694 -0.983,-1.223 -0.143,-0.281 -0.12,-0.327 -0.24,-1.947 0.025,-0.389 0.246,-0.63 0.074,-0.306 -0.086,-0.342 -0.466,-0.674 -0.211,-0.431 -0.088,-0.337 -0.659,-1.289 -0.025,-0.087 -0.004,-0.01 -0.062,0.048 -0.826,0.893 -0.984,0.767 -2.13,1.319 -1.084,0.45 -1.261,0.075 v -0.493 l 3.39,-1.743 1.493,-1.244 0.488,-1.512 -0.994,1.229 -1.818,1.104 -2.085,0.847 -11.799,2.928 0.002,0.005 1.354,4.453 0.18,0.301 0.247,0.303 0.484,0.425 0.315,0.209 0.294,0.142 0.767,0.256 0.545,0.236 2.109,1.621 0.512,0.26 3.02,1.157 0.547,0.311 0.243,0.184 0.427,0.455 1.085,2.093 0.356,0.537 0.302,0.352 0.234,0.127 2.282,0.753 0.303,0.139 0.284,0.168 0.487,0.434 0.209,0.256 0.155,0.666 0.124,0.996 -0.095,3.857 -0.235,1.489 -0.154,0.547 -0.2,0.528 -0.288,0.512 -0.78,0.996 -0.117,0.23 -0.162,0.493 -0.073,0.48 0.124,0.429 0.243,0.599 3.292,6.361 0.139,0.614 -0.222,1.632 2.177,0.031 1.401,0.194 1.016,0.057 0.413,-0.108 0.53,-0.194 0.888,-0.465 0.459,-0.297 0.325,-0.266 1.109,-1.142 0.548,-0.455 0.57,-0.383 0.549,-0.304 8.082,-2.69 0.523,-0.052 0.529,0.052 0.887,0.255 1.495,0.82 0.734,0.286 0.247,0.051 0.59,-0.051 2.772,-0.661 1.471,-0.491 0.247,-0.133 0.475,-0.337 0.225,-0.21 1.131,-1.561 0.47,-0.516 0.232,-0.176 0.231,-0.137 0.349,-0.026 0.444,0.072 0.755,0.342 0.371,0.283 0.228,0.266 0.097,0.24 0.168,0.772 0.106,0.973 0.122,0.501 0.196,0.537 0.234,0.487 0.166,0.246 0.959,0.899 0.172,0.252 0.077,0.261 0.021,0.266 -0.178,1.526 0.003,0.588 0.048,0.322 0.081,0.306 0.101,0.277 0.136,0.245 0.33,0.467 0.45,0.47 0.274,0.185 0.239,0.102 0.264,0.03 0.264,-0.02 L -2.617,9.089 -2.083,8.91 -1.571,8.659 -0.477,7.962 0.395,7.277 0.85,6.812 1.068,6.52 1.246,6.218 1.403,5.844 1.539,5.398 1.647,4.75 1.677,4.294 1.664,3.919 1.329,2.917 Z"
         style="fill:none;stroke:#999999;stroke-width:0.25;stroke-linecap:round;stroke-linejoin:round;stroke-miterlimit:4;stroke-dasharray:none;stroke-opacity:1"
         id="path72" /></g><g
       id="g74"
       transform="translate(116.48487,529.01618)"><path id="Lofa"
         d="M 0,0 0.257,0.174 0.271,1.129 0.433,2.497 1.235,3.419 2.529,3.405 3.839,2.796 4.688,1.932 5.044,0.515 4.502,-0.277 3.643,-0.878 3.026,-1.722 2.938,-2.921 l 0.583,-0.184 0.981,0.222 1.131,0.031 0.528,-0.062 0.558,0.072 0.485,0.239 0.315,0.436 0.47,0.528 0.531,-0.383 0.843,-1.179 3.284,-1.39 1.151,-0.829 0.467,-0.505 0.342,-0.178 -0.809,-0.485 -0.271,-0.117 -0.437,-0.245 -0.406,-0.328 -0.714,-0.737 0.602,-0.57 0.332,-0.698 0.254,-0.73 0.369,-0.662 0.318,-0.287 0.105,-0.296 -0.108,-0.301 -0.315,-0.295 -0.643,-1.046 -0.424,-1.885 0.116,-1.775 0.951,-0.702 1.591,-0.325 0.65,-0.349 0.216,-0.789 0.004,-0.76 1.195,-4.797 -0.136,-0.686 -0.714,-1.195 -0.095,-0.764 0.789,0.969 0.698,0.549 0.693,-0.078 0.766,-0.905 0.335,-0.709 0.118,-0.687 -0.146,-0.66 -0.47,-0.612 -0.088,-0.205 -0.846,-2.871 -0.159,-2.793 0.639,-2.751 1.506,-2.764 1.703,-2.18 0.569,-1.127 0.868,-1.115 0.805,-1.034 -0.715,-1.702 -0.647,-2.353 0.102,-2.224 1.388,-1.618 -0.714,-0.54 -0.562,-0.854 -0.38,-0.997 -0.319,-1.766 -0.469,-0.747 -1.172,-1.373 0.247,-0.915 -0.554,-1.41 -1.487,-2.226 -1.35,-1.024 -0.623,-0.635 -0.264,-0.823 -0.041,-0.901 -0.173,-0.779 -0.406,-0.672 -0.72,-0.618 0.236,-0.187 0.004,-0.009 0.095,-0.22 0.033,-0.231 0.094,-0.24 -1.581,-1.69 -2.527,-1.706 -1.041,-0.471 -1.464,-0.333 -1.273,-0.619 -1.802,-0.34 -0.671,-0.514 -0.492,-0.723 -0.373,-0.819 0.342,-0.754 -0.425,-0.997 -0.839,-0.911 -0.907,-0.494 v 0.409 l -0.569,-0.276 -1.115,-0.773 -0.552,-0.261 -0.618,-0.142 -0.443,-0.013 -2.37,0.319 -0.926,0.252 -1.945,0.894 -1.313,7.711 9.728,22.569 -0.729,4.418 -16.539,6.874 -10.459,-2.455 -6.08,8.594 -1.701,-2.45 -11.92,3.678 -3.648,3.438 -6.567,-1.72 -3.371,2.925 0.268,0.619 0.589,0.487 1.658,0.922 0.698,0.665 1.52,2.836 0.964,1.205 1.54,0.764 1.311,0.2 5.284,0.027 1.343,0.188 1.287,0.404 1.269,0.737 1.611,1.573 0.184,1.226 -0.515,1.317 -0.478,1.867 0.133,1.492 1.154,2.519 2.014,8.118 0.044,3.422 0.714,-0.034 0.687,0.12 1.348,0.518 0.514,-1.105 1.1,0.632 2.214,2.185 1.111,0.335 1.107,-0.024 3.727,-0.939 0.981,-0.57 0.447,-0.969 -0.66,-3.107 0.284,-0.882 0.873,-0.296 1.395,0.231 2.634,1.566 2.559,2.004 1.11,0.582 1.05,0.337 1.1,0.147 1.276,0.017 0.325,0.048 0.924,0.247 0.305,-0.151 0.304,-0.302 0.319,-0.429 0.585,0.175 1.185,0.617 1.625,0.48 0.088,0.433 -0.22,0.508 -0.002,0.53 0.449,0.577 0.47,0.488 0.315,0.565 -0.037,0.816 1.113,-0.157 0.691,-0.865 0.376,-1.143 0.42,-3.103 0.301,-1.179 0.68,-1.163 z"
         style="fill:#ebedc3;fill-opacity:1;fill-rule:evenodd;stroke:none"
          /></g><g
       id="g78"
       transform="translate(116.48487,529.01618)"><path
         d="M 0,0 0.257,0.174 0.271,1.129 0.433,2.497 1.235,3.419 2.529,3.405 3.839,2.796 4.688,1.932 5.044,0.515 4.502,-0.277 3.643,-0.878 3.026,-1.722 2.938,-2.921 l 0.583,-0.184 0.981,0.222 1.131,0.031 0.528,-0.062 0.558,0.072 0.485,0.239 0.315,0.436 0.47,0.528 0.531,-0.383 0.843,-1.179 3.284,-1.39 1.151,-0.829 0.467,-0.505 0.342,-0.178 -0.809,-0.485 -0.271,-0.117 -0.437,-0.245 -0.406,-0.328 -0.714,-0.737 0.602,-0.57 0.332,-0.698 0.254,-0.73 0.369,-0.662 0.318,-0.287 0.105,-0.296 -0.108,-0.301 -0.315,-0.295 -0.643,-1.046 -0.424,-1.885 0.116,-1.775 0.951,-0.702 1.591,-0.325 0.65,-0.349 0.216,-0.789 0.004,-0.76 1.195,-4.797 -0.136,-0.686 -0.714,-1.195 -0.095,-0.764 0.789,0.969 0.698,0.549 0.693,-0.078 0.766,-0.905 0.335,-0.709 0.118,-0.687 -0.146,-0.66 -0.47,-0.612 -0.088,-0.205 -0.846,-2.871 -0.159,-2.793 0.639,-2.751 1.506,-2.764 1.703,-2.18 0.569,-1.127 0.868,-1.115 0.805,-1.034 -0.715,-1.702 -0.647,-2.353 0.102,-2.224 1.388,-1.618 -0.714,-0.54 -0.562,-0.854 -0.38,-0.997 -0.319,-1.766 -0.469,-0.747 -1.172,-1.373 0.247,-0.915 -0.554,-1.41 -1.487,-2.226 -1.35,-1.024 -0.623,-0.635 -0.264,-0.823 -0.041,-0.901 -0.173,-0.779 -0.406,-0.672 -0.72,-0.618 0.236,-0.187 0.004,-0.009 0.095,-0.22 0.033,-0.231 0.094,-0.24 -1.581,-1.69 -2.527,-1.706 -1.041,-0.471 -1.464,-0.333 -1.273,-0.619 -1.802,-0.34 -0.671,-0.514 -0.492,-0.723 -0.373,-0.819 0.342,-0.754 -0.425,-0.997 -0.839,-0.911 -0.907,-0.494 v 0.409 l -0.569,-0.276 -1.115,-0.773 -0.552,-0.261 -0.618,-0.142 -0.443,-0.013 -2.37,0.319 -0.926,0.252 -1.945,0.894 -1.313,7.711 9.728,22.569 -0.729,4.418 -16.539,6.874 -10.459,-2.455 -6.08,8.594 -1.701,-2.45 -11.92,3.678 -3.648,3.438 -6.567,-1.72 -3.371,2.925 0.268,0.619 0.589,0.487 1.658,0.922 0.698,0.665 1.52,2.836 0.964,1.205 1.54,0.764 1.311,0.2 5.284,0.027 1.343,0.188 1.287,0.404 1.269,0.737 1.611,1.573 0.184,1.226 -0.515,1.317 -0.478,1.867 0.133,1.492 1.154,2.519 2.014,8.118 0.044,3.422 0.714,-0.034 0.687,0.12 1.348,0.518 0.514,-1.105 1.1,0.632 2.214,2.185 1.111,0.335 1.107,-0.024 3.727,-0.939 0.981,-0.57 0.447,-0.969 -0.66,-3.107 0.284,-0.882 0.873,-0.296 1.395,0.231 2.634,1.566 2.559,2.004 1.11,0.582 1.05,0.337 1.1,0.147 1.276,0.017 0.325,0.048 0.924,0.247 0.305,-0.151 0.304,-0.302 0.319,-0.429 0.585,0.175 1.185,0.617 1.625,0.48 0.088,0.433 -0.22,0.508 -0.002,0.53 0.449,0.577 0.47,0.488 0.315,0.565 -0.037,0.816 1.113,-0.157 0.691,-0.865 0.376,-1.143 0.42,-3.103 0.301,-1.179 0.68,-1.163 z"
         style="fill:none;stroke:#999999;stroke-width:0.25;stroke-linecap:round;stroke-linejoin:round;stroke-miterlimit:4;stroke-dasharray:none;stroke-opacity:1"
         id="path80" /></g><g
       id="g82"
       transform="translate(215.93497,311.20508)"><path id="GrandKru"
         d="m 0,0 0.407,0.234 2.183,-0.163 9.133,-1.485 0.706,-1.73 0.066,-0.459 0.024,-0.841 -0.109,-0.444 -0.147,-0.388 -0.215,-0.372 -0.427,-0.566 -1.57,-2.599 -0.005,-0.014 -0.958,-1.756 -2.306,-5.713 0.011,-0.637 0.065,-0.56 0.092,-0.363 0.116,-0.322 0.136,-0.239 0.342,-0.438 0.48,-0.388 0.267,-0.153 4.676,-1.571 4.242,-1.856 0.956,-0.531 0.494,-0.347 0.55,-0.475 0.478,-0.504 0.431,-0.551 2.867,-4.855 0.945,-1.29 1.54,-2.656 0.274,-0.658 0.127,-0.5 -0.076,-0.56 -0.467,-1.739 -0.112,-1.265 0.051,-2.375 -0.091,-0.466 -0.178,-0.494 -0.237,-0.463 -0.958,-1.54 -0.224,-0.517 -0.002,-0.006 -1.239,0.378 -1.567,1.235 -0.733,0.281 -1.082,0.136 -0.647,0.34 -0.51,0.438 -0.642,0.428 -1.171,0.471 -2.836,0.754 -2.249,0.344 -4.116,1.613 -7.972,0.97 -2.311,0.784 -2.809,3.107 -1.037,0.522 -1.265,0.238 -6.76,2.455 -7.298,5.172 -3.771,2.108 -6.292,2.298 0.006,0.006 1.72,1.523 0.574,0.749 0.317,1.027 0.147,0.963 0.472,1.678 0.24,0.377 0.244,0.199 1.632,0.114 0.342,0.087 0.548,0.214 0.276,0.223 0.198,0.245 0.914,1.98 1.525,2.648 0.418,0.566 0.336,0.362 1.947,1.103 4.332,3.35 0.247,0.128 0.255,0.102 0.507,0.078 2.835,-0.015 0.349,0.065 0.536,0.215 0.311,0.235 0.242,0.28 0.547,0.912 2.074,2.502 0.373,0.342 0.538,0.315 0.838,0.322 2.907,-0.377 0.952,-0.291 2.317,-1.557 0.411,-0.117 z"
         style="fill:#fff3da;fill-opacity:1;fill-rule:evenodd;stroke:none"
         /></g><g
       id="g86"
       transform="translate(215.93497,311.20508)"><path
         d="m 0,0 0.407,0.234 2.183,-0.163 9.133,-1.485 0.706,-1.73 0.066,-0.459 0.024,-0.841 -0.109,-0.444 -0.147,-0.388 -0.215,-0.372 -0.427,-0.566 -1.57,-2.599 -0.005,-0.014 -0.958,-1.756 -2.306,-5.713 0.011,-0.637 0.065,-0.56 0.092,-0.363 0.116,-0.322 0.136,-0.239 0.342,-0.438 0.48,-0.388 0.267,-0.153 4.676,-1.571 4.242,-1.856 0.956,-0.531 0.494,-0.347 0.55,-0.475 0.478,-0.504 0.431,-0.551 2.867,-4.855 0.945,-1.29 1.54,-2.656 0.274,-0.658 0.127,-0.5 -0.076,-0.56 -0.467,-1.739 -0.112,-1.265 0.051,-2.375 -0.091,-0.466 -0.178,-0.494 -0.237,-0.463 -0.958,-1.54 -0.224,-0.517 -0.002,-0.006 -1.239,0.378 -1.567,1.235 -0.733,0.281 -1.082,0.136 -0.647,0.34 -0.51,0.438 -0.642,0.428 -1.171,0.471 -2.836,0.754 -2.249,0.344 -4.116,1.613 -7.972,0.97 -2.311,0.784 -2.809,3.107 -1.037,0.522 -1.265,0.238 -6.76,2.455 -7.298,5.172 -3.771,2.108 -6.292,2.298 0.006,0.006 1.72,1.523 0.574,0.749 0.317,1.027 0.147,0.963 0.472,1.678 0.24,0.377 0.244,0.199 1.632,0.114 0.342,0.087 0.548,0.214 0.276,0.223 0.198,0.245 0.914,1.98 1.525,2.648 0.418,0.566 0.336,0.362 1.947,1.103 4.332,3.35 0.247,0.128 0.255,0.102 0.507,0.078 2.835,-0.015 0.349,0.065 0.536,0.215 0.311,0.235 0.242,0.28 0.547,0.912 2.074,2.502 0.373,0.342 0.538,0.315 0.838,0.322 2.907,-0.377 0.952,-0.291 2.317,-1.557 0.411,-0.117 z"
         style="fill:none;stroke:#999999;stroke-width:0.25;stroke-linecap:round;stroke-linejoin:round;stroke-miterlimit:4;stroke-dasharray:none;stroke-opacity:1"
         id="path88" /></g><g
       id="g90"
       transform="translate(188.76317,400.65778)"><path id="GrandGedeh"
         d="m 0,0 1.105,-0.071 0.638,-0.137 1.574,0.048 0.759,-0.223 0.731,-0.647 1.946,-2.612 1.206,-0.41 0.815,0.673 0.515,1.224 0.298,1.22 0.318,0.555 0.413,-0.276 0.758,-0.986 2.055,-1.103 0.863,-0.98 -0.092,-0.382 -0.483,-0.419 -0.339,-1.09 0.118,-0.623 0.59,-1.204 0.149,-0.506 -0.329,-0.598 -0.601,-0.335 -0.232,-0.403 0.779,-0.788 0.704,0.687 0.803,0.306 0.801,-0.024 0.695,-0.307 0.853,0.724 0.677,-0.271 0.633,-0.723 0.694,-0.627 0.317,0.034 0.217,0.3 0.275,0.204 0.477,-0.262 0.328,-0.531 0.075,-0.54 v -0.455 l 0.098,-0.273 0.596,-0.217 5.076,-1.155 0.78,-0.289 0.711,-0.416 0.437,-0.328 0.554,-0.187 1.064,0.013 0.9,0.221 1.462,0.813 0.766,0.315 3.046,0.426 1.774,0.04 1.134,-0.262 1.069,-0.73 4.225,-1.007 0.352,-0.044 0.281,0.116 0.306,0.085 0.405,-0.137 0.112,-0.218 0.172,-0.767 0.227,-0.316 2.912,-2.345 1.015,-1.246 0.162,-0.891 -0.866,-2.542 -0.305,-1.384 -0.163,-1.494 0.177,-1.331 0.714,-0.918 0.027,0.309 0.629,0.337 0.819,0.22 0.589,-0.041 0.637,-0.585 0.261,-0.604 0.213,-1.501 0.21,-0.235 0.352,-0.106 0.335,-0.17 0.15,-0.42 -0.14,-0.35 -0.599,-0.332 -0.145,-0.303 -0.048,-1.872 0.068,-0.479 0.853,-1.074 2.586,-1.354 0.799,-0.789 1.165,-1.638 0.914,0.47 0.764,1.307 0.725,0.869 0.423,-0.341 0.715,-0.833 0.967,-0.778 1.162,-0.177 0.097,-0.241 1.351,-0.74 0.179,-0.038 1.416,-0.621 0.332,-0.429 -0.532,-0.685 0.504,-0.424 0.866,-1.094 0.468,-0.255 0.758,0.367 0.811,0.686 0.486,0.197 -0.217,-1.107 1.016,-0.184 0.443,-0.859 0.321,-0.927 0.623,-0.39 0.508,0.502 0.325,1.08 0.204,1.953 2.098,-0.917 0.295,-2.283 -0.427,-2.78 -0.061,-2.415 1.209,-5.161 0.856,-1.726 1.395,-2.807 0.822,-1.062 -1.374,0.226 -0.447,-0.792 0.315,-1.248 0.883,-1.147 -1.3,-0.076 -0.426,0.02 0.664,-0.639 h -0.01 l -44.538,-1.849 -4.233,-0.847 -8.59,-0.94 -7.213,-0.097 -2.292,0.878 0.001,0.005 0.121,0.691 0.004,0.254 -0.039,0.255 -0.101,0.235 -0.223,0.24 -0.332,0.225 -0.921,0.315 -1.018,0.225 -0.275,0.165 -0.26,0.26 -0.271,0.536 -0.075,0.357 -0.005,0.311 0.08,0.27 0.108,0.257 0.283,0.495 1.373,1.94 0.097,0.225 0.07,0.225 0.098,0.709 0.07,0.246 0.111,0.229 0.156,0.225 0.203,0.179 0.237,0.132 0.251,0.087 0.487,0.113 0.289,0.035 2.131,0.056 0.551,0.077 1.091,0.281 0.246,0.118 0.221,0.153 0.175,0.195 0.119,0.213 0.075,0.225 0.049,0.24 0.024,0.704 -0.045,0.456 -0.253,0.964 -0.367,1.017 -1.002,1.839 -1.256,1.829 -0.919,0.924 -0.755,0.583 -2.011,1.219 -0.508,0.2 -0.598,0.117 -2.084,0.128 -0.637,-0.077 -0.451,-0.138 -0.214,-0.189 -4.202,-5.108 -3.744,1.635 -17.078,9.569 0.144,1.215 -0.519,1.024 -0.99,0.906 -0.961,-0.902 -0.353,0.698 0.37,1.514 1.202,1.548 0.019,0.598 -0.806,0.637 -0.531,0.809 0.831,1.118 1.137,0.391 2.65,0.296 1.029,0.694 0.586,1.275 0.291,1.697 -0.148,1.629 -0.74,1.065 0.981,0.816 0.812,2.146 0.947,0.511 1.816,0.675 1.735,1.429 1.483,1.734 1.035,1.585 3.932,7.906 1.542,5.248 1.085,2.436 z"
         style="fill:#fcd4c7;fill-opacity:1;fill-rule:evenodd;stroke:none"
         /></g><g
       id="g94"
       transform="translate(188.76317,400.65778)"><path
         d="m 0,0 1.105,-0.071 0.638,-0.137 1.574,0.048 0.759,-0.223 0.731,-0.647 1.946,-2.612 1.206,-0.41 0.815,0.673 0.515,1.224 0.298,1.22 0.318,0.555 0.413,-0.276 0.758,-0.986 2.055,-1.103 0.863,-0.98 -0.092,-0.382 -0.483,-0.419 -0.339,-1.09 0.118,-0.623 0.59,-1.204 0.149,-0.506 -0.329,-0.598 -0.601,-0.335 -0.232,-0.403 0.779,-0.788 0.704,0.687 0.803,0.306 0.801,-0.024 0.695,-0.307 0.853,0.724 0.677,-0.271 0.633,-0.723 0.694,-0.627 0.317,0.034 0.217,0.3 0.275,0.204 0.477,-0.262 0.328,-0.531 0.075,-0.54 v -0.455 l 0.098,-0.273 0.596,-0.217 5.076,-1.155 0.78,-0.289 0.711,-0.416 0.437,-0.328 0.554,-0.187 1.064,0.013 0.9,0.221 1.462,0.813 0.766,0.315 3.046,0.426 1.774,0.04 1.134,-0.262 1.069,-0.73 4.225,-1.007 0.352,-0.044 0.281,0.116 0.306,0.085 0.405,-0.137 0.112,-0.218 0.172,-0.767 0.227,-0.316 2.912,-2.345 1.015,-1.246 0.162,-0.891 -0.866,-2.542 -0.305,-1.384 -0.163,-1.494 0.177,-1.331 0.714,-0.918 0.027,0.309 0.629,0.337 0.819,0.22 0.589,-0.041 0.637,-0.585 0.261,-0.604 0.213,-1.501 0.21,-0.235 0.352,-0.106 0.335,-0.17 0.15,-0.42 -0.14,-0.35 -0.599,-0.332 -0.145,-0.303 -0.048,-1.872 0.068,-0.479 0.853,-1.074 2.586,-1.354 0.799,-0.789 1.165,-1.638 0.914,0.47 0.764,1.307 0.725,0.869 0.423,-0.341 0.715,-0.833 0.967,-0.778 1.162,-0.177 0.097,-0.241 1.351,-0.74 0.179,-0.038 1.416,-0.621 0.332,-0.429 -0.532,-0.685 0.504,-0.424 0.866,-1.094 0.468,-0.255 0.758,0.367 0.811,0.686 0.486,0.197 -0.217,-1.107 1.016,-0.184 0.443,-0.859 0.321,-0.927 0.623,-0.39 0.508,0.502 0.325,1.08 0.204,1.953 2.098,-0.917 0.295,-2.283 -0.427,-2.78 -0.061,-2.415 1.209,-5.161 0.856,-1.726 1.395,-2.807 0.822,-1.062 -1.374,0.226 -0.447,-0.792 0.315,-1.248 0.883,-1.147 -1.3,-0.076 -0.426,0.02 0.664,-0.639 h -0.01 l -44.538,-1.849 -4.233,-0.847 -8.59,-0.94 -7.213,-0.097 -2.292,0.878 0.001,0.005 0.121,0.691 0.004,0.254 -0.039,0.255 -0.101,0.235 -0.223,0.24 -0.332,0.225 -0.921,0.315 -1.018,0.225 -0.275,0.165 -0.26,0.26 -0.271,0.536 -0.075,0.357 -0.005,0.311 0.08,0.27 0.108,0.257 0.283,0.495 1.373,1.94 0.097,0.225 0.07,0.225 0.098,0.709 0.07,0.246 0.111,0.229 0.156,0.225 0.203,0.179 0.237,0.132 0.251,0.087 0.487,0.113 0.289,0.035 2.131,0.056 0.551,0.077 1.091,0.281 0.246,0.118 0.221,0.153 0.175,0.195 0.119,0.213 0.075,0.225 0.049,0.24 0.024,0.704 -0.045,0.456 -0.253,0.964 -0.367,1.017 -1.002,1.839 -1.256,1.829 -0.919,0.924 -0.755,0.583 -2.011,1.219 -0.508,0.2 -0.598,0.117 -2.084,0.128 -0.637,-0.077 -0.451,-0.138 -0.214,-0.189 -4.202,-5.108 -3.744,1.635 -17.078,9.569 0.144,1.215 -0.519,1.024 -0.99,0.906 -0.961,-0.902 -0.353,0.698 0.37,1.514 1.202,1.548 0.019,0.598 -0.806,0.637 -0.531,0.809 0.831,1.118 1.137,0.391 2.65,0.296 1.029,0.694 0.586,1.275 0.291,1.697 -0.148,1.629 -0.74,1.065 0.981,0.816 0.812,2.146 0.947,0.511 1.816,0.675 1.735,1.429 1.483,1.734 1.035,1.585 3.932,7.906 1.542,5.248 1.085,2.436 z"
         style="fill:none;stroke:#999999;stroke-width:0.25;stroke-linecap:round;stroke-linejoin:round;stroke-miterlimit:4;stroke-dasharray:none;stroke-opacity:1"
         id="path96" /></g><g
       id="g98"
       transform="translate(46.010672,468.42978)"><path id="GrandCapeMount"
         d="M 0,0 0.376,0.01 1.29,0.2 h 0.172 l 0.154,-0.092 0.554,-0.405 4.705,-0.881 0.357,0.082 0.955,0.128 0.546,-0.857 0.4,-0.179 1.116,0.108 1.035,-0.021 1.317,-0.148 0.66,-0.287 0.584,-0.471 3.815,-5.321 0.168,-0.328 0.218,-0.621 0.24,-1.367 0.015,-1.291 -0.052,-0.565 0.322,-1.506 -0.092,-0.47 -0.264,-0.437 -0.885,-0.589 -0.462,-0.451 -0.201,-0.247 -0.236,-0.22 -0.287,-0.169 -1.378,-0.44 -0.305,-0.154 -0.277,-0.179 -0.955,-0.855 -4.744,-2.931 -1.569,-0.328 -0.356,-0.107 -0.299,-0.155 -0.244,-0.215 -0.203,-0.241 -0.232,-0.225 -1.331,-0.941 -0.265,-0.272 -0.266,-0.334 -1.019,-1.737 -0.135,-0.168 -0.2,-0.164 -0.558,-0.292 -0.477,-0.424 -0.221,-0.236 -0.257,-0.164 -0.3,-0.104 -0.644,0.023 -0.308,-0.098 -1.192,-0.656 -0.31,-0.226 -0.539,-0.655 -0.249,-0.23 -0.312,-0.153 -1.041,-0.33 -0.308,-0.153 -0.24,-0.204 -0.42,-0.451 -0.22,-0.169 -0.351,-0.189 -0.627,-0.759 -0.725,-1.146 -0.44,-0.529 -0.431,-0.327 -0.852,-0.154 -0.416,-0.169 -0.467,-0.316 -0.191,-0.318 0.006,-0.031 0.481,-0.461 0.234,-0.722 -0.286,-1.265 -0.031,-0.573 0.098,-0.67 -0.067,-0.544 -1.693,-4.673 -0.88,-1.864 -0.051,-0.506 0.09,-0.375 0.68,-0.736 0.212,-0.379 0.183,-0.763 -0.161,-1.023 -0.078,-1.311 -0.522,-2.072 -0.16,-0.435 -0.098,-0.153 -0.156,-0.153 -0.244,-0.062 -0.541,0.2 -0.305,0.056 -0.222,-0.026 -0.238,-0.076 -0.251,-0.15 -0.323,-0.246 -0.325,-0.347 -0.437,-0.706 -0.191,-0.61 -0.09,-0.818 -0.137,-0.424 -0.249,-0.251 -0.69,-0.163 -0.643,-0.263 -0.283,-0.184 -0.328,-0.286 -0.356,-0.399 -0.514,-0.784 -0.21,-0.531 -0.085,-0.496 0.109,-0.843 0.197,-0.794 0.002,-0.007 -10.218,3.665 -7.869,3.499 -1.42,1.697 -0.056,2.625 0.378,1.465 0.086,0.618 0.024,0.864 -0.896,1.68 -0.24,0.328 -1.231,0.349 -1.298,0.808 -1.104,0.921 -0.637,0.665 -1.663,2.379 2.076,0.959 0.508,0.303 -0.139,1.671 0.274,1.119 1.794,1.026 0.626,1.085 0.407,1.252 0.145,0.985 -0.237,1.331 0.21,0.44 1.429,0.16 0.487,0.178 0.349,0.357 0.132,0.577 -0.217,0.829 -0.927,1.521 -0.173,0.69 0.203,0.249 1.185,1.098 2.281,3.586 1.114,0.232 5.393,2.443 0.565,0.536 4.261,5.481 1.172,1.508 9.722,7.722 2.678,1.509 2.491,0.578 0.87,0.375 0.728,0.574 0.693,0.847 0.871,-0.108 2.346,-0.538 0.22,-0.107 0.287,-0.197 0.19,-0.456 0.21,-0.117 z"
         style="fill:#ffe3ca;fill-opacity:1;fill-rule:evenodd;stroke:none"
          /></g><g
       id="g102"
       transform="translate(46.010672,468.42978)"><path
         d="M 0,0 0.376,0.01 1.29,0.2 h 0.172 l 0.154,-0.092 0.554,-0.405 4.705,-0.881 0.357,0.082 0.955,0.128 0.546,-0.857 0.4,-0.179 1.116,0.108 1.035,-0.021 1.317,-0.148 0.66,-0.287 0.584,-0.471 3.815,-5.321 0.168,-0.328 0.218,-0.621 0.24,-1.367 0.015,-1.291 -0.052,-0.565 0.322,-1.506 -0.092,-0.47 -0.264,-0.437 -0.885,-0.589 -0.462,-0.451 -0.201,-0.247 -0.236,-0.22 -0.287,-0.169 -1.378,-0.44 -0.305,-0.154 -0.277,-0.179 -0.955,-0.855 -4.744,-2.931 -1.569,-0.328 -0.356,-0.107 -0.299,-0.155 -0.244,-0.215 -0.203,-0.241 -0.232,-0.225 -1.331,-0.941 -0.265,-0.272 -0.266,-0.334 -1.019,-1.737 -0.135,-0.168 -0.2,-0.164 -0.558,-0.292 -0.477,-0.424 -0.221,-0.236 -0.257,-0.164 -0.3,-0.104 -0.644,0.023 -0.308,-0.098 -1.192,-0.656 -0.31,-0.226 -0.539,-0.655 -0.249,-0.23 -0.312,-0.153 -1.041,-0.33 -0.308,-0.153 -0.24,-0.204 -0.42,-0.451 -0.22,-0.169 -0.351,-0.189 -0.627,-0.759 -0.725,-1.146 -0.44,-0.529 -0.431,-0.327 -0.852,-0.154 -0.416,-0.169 -0.467,-0.316 -0.191,-0.318 0.006,-0.031 0.481,-0.461 0.234,-0.722 -0.286,-1.265 -0.031,-0.573 0.098,-0.67 -0.067,-0.544 -1.693,-4.673 -0.88,-1.864 -0.051,-0.506 0.09,-0.375 0.68,-0.736 0.212,-0.379 0.183,-0.763 -0.161,-1.023 -0.078,-1.311 -0.522,-2.072 -0.16,-0.435 -0.098,-0.153 -0.156,-0.153 -0.244,-0.062 -0.541,0.2 -0.305,0.056 -0.222,-0.026 -0.238,-0.076 -0.251,-0.15 -0.323,-0.246 -0.325,-0.347 -0.437,-0.706 -0.191,-0.61 -0.09,-0.818 -0.137,-0.424 -0.249,-0.251 -0.69,-0.163 -0.643,-0.263 -0.283,-0.184 -0.328,-0.286 -0.356,-0.399 -0.514,-0.784 -0.21,-0.531 -0.085,-0.496 0.109,-0.843 0.197,-0.794 0.002,-0.007 -10.218,3.665 -7.869,3.499 -1.42,1.697 -0.056,2.625 0.378,1.465 0.086,0.618 0.024,0.864 -0.896,1.68 -0.24,0.328 -1.231,0.349 -1.298,0.808 -1.104,0.921 -0.637,0.665 -1.663,2.379 2.076,0.959 0.508,0.303 -0.139,1.671 0.274,1.119 1.794,1.026 0.626,1.085 0.407,1.252 0.145,0.985 -0.237,1.331 0.21,0.44 1.429,0.16 0.487,0.178 0.349,0.357 0.132,0.577 -0.217,0.829 -0.927,1.521 -0.173,0.69 0.203,0.249 1.185,1.098 2.281,3.586 1.114,0.232 5.393,2.443 0.565,0.536 4.261,5.481 1.172,1.508 9.722,7.722 2.678,1.509 2.491,0.578 0.87,0.375 0.728,0.574 0.693,0.847 0.871,-0.108 2.346,-0.538 0.22,-0.107 0.287,-0.197 0.19,-0.456 0.21,-0.117 z"
         style="fill:none;stroke:#999999;stroke-width:0.25;stroke-linecap:round;stroke-linejoin:round;stroke-miterlimit:4;stroke-dasharray:none;stroke-opacity:1"
         id="path104" /></g><g
       id="g106"
       transform="translate(116.22747,410.39458)"><path id="GrandBassa"
         d="M 0,0 3.238,0.348 3.473,0.409 3.792,0.424 4.177,0.363 4.811,0.066 5.185,-0.199 5.479,-0.486 7.199,-2.575 8.759,-3.944 9.062,-4.343 9.316,-4.785 9.422,-5.132 9.453,-5.398 9.448,-5.633 9.397,-5.873 9.311,-6.108 9.177,-6.35 8.383,-7.311 7.461,-8.202 l -1.652,-2.107 -0.62,-1.033 -0.105,-0.265 -0.077,-0.268 -0.034,-0.266 0.013,-0.24 0.051,-0.229 0.102,-0.251 0.149,-0.245 0.191,-0.241 h 0.547 l 0.78,0.266 1.78,1.027 1.201,1.065 0.301,0.148 0.555,-0.071 0.739,-0.266 0.337,-0.01 0.577,0.072 0.263,0.005 0.634,-0.067 0.315,0.092 0.224,0.164 0.377,0.423 0.422,0.64 0.073,0.323 0.118,0.276 0.237,0.158 0.433,-0.025 0.332,-0.061 0.347,0.036 0.286,0.296 0.321,0.204 0.373,0.123 0.578,-0.102 0.353,-0.098 0.306,0.016 0.42,0.813 0.345,0.533 0.977,0.69 1.265,1.233 0.33,0.118 0.58,-0.016 0.447,0.092 0.46,0.399 0.263,0.332 0.153,0.38 0.07,0.363 0.165,0.373 0.297,0.322 0.991,0.701 0.413,0.385 0.202,0.235 0.279,0.122 0.463,-0.209 0.182,-0.312 0.112,-0.347 0.753,-0.069 6.23,1.566 1.068,-0.02 0.73,0.087 2.975,-0.956 0.765,-0.148 0.362,0.153 0.153,0.107 0.57,0.21 0.487,-0.071 0.293,-0.108 0.39,-0.281 0.111,-0.194 0.026,-0.174 -0.164,-0.457 -0.139,-0.557 -0.02,-0.123 -0.035,-0.127 -0.157,-0.343 -0.09,-0.107 -0.13,-0.099 -0.897,-0.332 -0.157,-0.092 -0.102,-0.082 -0.72,-0.884 -0.109,-0.2 -0.224,-0.594 -0.314,-1.868 -0.087,-0.336 -0.557,-1.089 -0.039,-0.148 0.026,-0.135 0.071,-0.051 0.129,-0.051 0.135,-0.005 0.145,0.025 0.36,0.128 0.136,-0.014 0.183,-0.093 0.269,-0.2 0.086,-0.25 0.009,-0.22 -0.333,-1.591 -0.486,-1.428 -0.084,-0.377 -0.025,-0.424 0.079,-1.055 -0.007,-0.275 -0.166,-1.017 -0.077,-1.943 -13.816,-0.067 -0.924,-0.609 -0.473,-0.194 -0.986,-0.291 -0.494,-0.236 -0.306,-0.107 -2.622,-0.554 -0.278,-0.122 -0.254,-0.174 -0.304,-0.276 -0.169,-0.24 -0.127,-0.235 -0.042,-0.224 0.016,-0.225 0.062,-0.231 0.172,-0.456 0.068,-0.23 0.042,-0.225 0.003,-0.449 -0.072,-0.449 -0.462,-1.678 -0.043,-0.476 0.022,-0.996 0.652,-3.426 -0.128,-0.317 -0.286,-0.428 -2.017,-1.851 -0.391,-0.467 -1.423,-2.289 -0.371,-0.465 -0.272,-0.107 -0.257,0.036 -0.207,0.169 -0.178,0.204 -0.321,0.434 -0.204,0.169 -0.238,0.107 -0.457,0.102 -0.936,0.078 -0.757,-0.04 -0.705,-0.133 -0.391,-0.192 -0.309,-0.245 -0.17,-0.275 -0.137,-0.271 -0.082,-0.275 -0.03,-0.261 0.044,-0.573 -0.031,-0.332 -0.165,-0.43 -0.229,-0.229 -1.662,-0.649 -0.381,-0.272 -0.242,-0.296 -0.061,-0.266 -0.019,-0.265 0.078,-0.475 0.063,-0.229 0.039,-0.227 -0.01,-0.433 -0.036,-0.22 v -0.011 l -0.799,-2.514 -0.022,-0.252 0.002,-0.229 0.206,-0.679 0.002,-0.255 -0.078,-0.27 -0.343,-0.605 -0.09,-0.25 -0.007,-0.219 0.127,-0.47 0.584,-1.176 0.036,-0.24 -0.029,-0.23 -0.08,-0.224 -2.132,-3.403 -0.2,-0.485 -0.212,-0.818 -0.02,-0.255 0.005,-0.235 0.112,-0.475 0.574,-1.236 0.142,-0.46 0.03,-0.219 0.004,-0.419 -0.02,-0.18 -0.055,-0.164 -0.411,-0.805 -0.096,-0.261 -0.046,-0.266 -0.002,-0.256 0.031,-0.291 0.076,-0.25 0.106,-0.245 0.449,-0.715 0.218,-0.502 0.439,-2.022 0.02,-0.316 L 3.4,-64.491 3.233,-65.124 3.015,-65.492 1.5,-66.927 1.2,-67.361 1.019,-67.75 l -0.115,-0.423 -0.223,-0.234 -0.31,-0.174 -0.415,-0.168 -0.25,-0.225 -0.122,-0.231 -0.048,-0.261 -0.001,-0.305 v -0.017 l -7.138,6.862 -9.009,7.415 -2.33,2.637 -0.485,0.402 -1.135,0.664 -0.411,0.488 -0.187,0.662 0.281,0.836 -0.094,0.788 -0.61,1.01 -1.032,0.858 -1.167,0.605 -0.992,0.228 -0.704,0.386 -4.632,3.674 -2.676,2.932 -3.494,2.198 -1.197,0.523 -2.479,0.482 -1.157,0.668 -0.685,0.876 0.173,0.893 0.603,-0.375 0.512,-0.054 0.415,0.269 0.299,0.61 -1.314,0.301 -0.879,0.688 0.004,0.011 0.025,0.087 0.659,1.289 0.088,0.337 0.211,0.431 0.466,0.673 0.086,0.343 -0.074,0.306 -0.246,0.63 -0.025,0.388 0.24,1.948 0.12,0.327 0.143,0.281 0.983,1.223 0.308,0.694 0.223,0.199 0.391,0.133 0.328,0.179 0.224,0.4 0.017,0.383 -0.122,0.332 -0.218,0.226 -0.139,0.25 -0.025,0.265 0.011,0.293 -0.052,0.286 0.017,0.266 0.237,0.174 0.653,0.24 0.721,0.398 1.128,1.049 0.407,0.649 0.224,0.533 -0.005,0.389 -0.302,0.996 -0.05,0.364 0.043,0.358 0.143,0.301 2.036,2.184 0.282,0.727 0.312,0.568 0.188,0.694 0.248,0.599 v 0.308 l -0.179,0.219 -0.567,0.302 -0.131,0.286 -0.111,0.614 -0.217,0.168 -0.254,0.089 -0.201,0.174 -0.138,0.48 0.296,0.204 0.548,0.297 2.353,0.455 1.062,0.385 0.706,-0.23 0.259,-0.123 0.039,-0.14 -0.025,-0.158 -0.085,-0.2 -0.05,-0.25 0.023,-0.276 0.122,-0.276 0.183,-0.199 0.472,-0.296 0.166,-0.15 0.113,-0.159 0.09,-0.168 0.127,-0.164 0.168,-0.118 1.012,-0.321 0.243,-0.149 0.199,-0.174 0.379,-0.461 0.22,-0.184 0.39,-0.108 0.52,-0.025 0.941,0.143 0.522,0.164 0.524,0.41 0.306,0.291 0.236,0.327 0.55,0.537 0.201,0.077 1.06,-0.169 0.826,0.154 0.944,-0.031 1.801,-0.542 0.515,-0.087 0.514,-0.005 0.462,0.205 0.61,0.388 1.731,1.56 0.609,0.69 0.325,0.253 0.366,0.163 0.552,0.072 0.355,-0.031 0.325,-0.092 1.269,-0.687 0.236,-0.092 0.244,-0.061 0.238,-0.02 0.254,0.015 0.261,0.051 1.398,1.356 4.903,5.93 0.325,-0.46 0.205,-0.138 0.254,-0.133 z"
         style="fill:#fcd4c7;fill-opacity:1;fill-rule:evenodd;stroke:none"
          /></g><g
       id="g110"
       transform="translate(116.22747,410.39458)"><path
         d="M 0,0 3.238,0.348 3.473,0.409 3.792,0.424 4.177,0.363 4.811,0.066 5.185,-0.199 5.479,-0.486 7.199,-2.575 8.759,-3.944 9.062,-4.343 9.316,-4.785 9.422,-5.132 9.453,-5.398 9.448,-5.633 9.397,-5.873 9.311,-6.108 9.177,-6.35 8.383,-7.311 7.461,-8.202 l -1.652,-2.107 -0.62,-1.033 -0.105,-0.265 -0.077,-0.268 -0.034,-0.266 0.013,-0.24 0.051,-0.229 0.102,-0.251 0.149,-0.245 0.191,-0.241 h 0.547 l 0.78,0.266 1.78,1.027 1.201,1.065 0.301,0.148 0.555,-0.071 0.739,-0.266 0.337,-0.01 0.577,0.072 0.263,0.005 0.634,-0.067 0.315,0.092 0.224,0.164 0.377,0.423 0.422,0.64 0.073,0.323 0.118,0.276 0.237,0.158 0.433,-0.025 0.332,-0.061 0.347,0.036 0.286,0.296 0.321,0.204 0.373,0.123 0.578,-0.102 0.353,-0.098 0.306,0.016 0.42,0.813 0.345,0.533 0.977,0.69 1.265,1.233 0.33,0.118 0.58,-0.016 0.447,0.092 0.46,0.399 0.263,0.332 0.153,0.38 0.07,0.363 0.165,0.373 0.297,0.322 0.991,0.701 0.413,0.385 0.202,0.235 0.279,0.122 0.463,-0.209 0.182,-0.312 0.112,-0.347 0.753,-0.069 6.23,1.566 1.068,-0.02 0.73,0.087 2.975,-0.956 0.765,-0.148 0.362,0.153 0.153,0.107 0.57,0.21 0.487,-0.071 0.293,-0.108 0.39,-0.281 0.111,-0.194 0.026,-0.174 -0.164,-0.457 -0.139,-0.557 -0.02,-0.123 -0.035,-0.127 -0.157,-0.343 -0.09,-0.107 -0.13,-0.099 -0.897,-0.332 -0.157,-0.092 -0.102,-0.082 -0.72,-0.884 -0.109,-0.2 -0.224,-0.594 -0.314,-1.868 -0.087,-0.336 -0.557,-1.089 -0.039,-0.148 0.026,-0.135 0.071,-0.051 0.129,-0.051 0.135,-0.005 0.145,0.025 0.36,0.128 0.136,-0.014 0.183,-0.093 0.269,-0.2 0.086,-0.25 0.009,-0.22 -0.333,-1.591 -0.486,-1.428 -0.084,-0.377 -0.025,-0.424 0.079,-1.055 -0.007,-0.275 -0.166,-1.017 -0.077,-1.943 -13.816,-0.067 -0.924,-0.609 -0.473,-0.194 -0.986,-0.291 -0.494,-0.236 -0.306,-0.107 -2.622,-0.554 -0.278,-0.122 -0.254,-0.174 -0.304,-0.276 -0.169,-0.24 -0.127,-0.235 -0.042,-0.224 0.016,-0.225 0.062,-0.231 0.172,-0.456 0.068,-0.23 0.042,-0.225 0.003,-0.449 -0.072,-0.449 -0.462,-1.678 -0.043,-0.476 0.022,-0.996 0.652,-3.426 -0.128,-0.317 -0.286,-0.428 -2.017,-1.851 -0.391,-0.467 -1.423,-2.289 -0.371,-0.465 -0.272,-0.107 -0.257,0.036 -0.207,0.169 -0.178,0.204 -0.321,0.434 -0.204,0.169 -0.238,0.107 -0.457,0.102 -0.936,0.078 -0.757,-0.04 -0.705,-0.133 -0.391,-0.192 -0.309,-0.245 -0.17,-0.275 -0.137,-0.271 -0.082,-0.275 -0.03,-0.261 0.044,-0.573 -0.031,-0.332 -0.165,-0.43 -0.229,-0.229 -1.662,-0.649 -0.381,-0.272 -0.242,-0.296 -0.061,-0.266 -0.019,-0.265 0.078,-0.475 0.063,-0.229 0.039,-0.227 -0.01,-0.433 -0.036,-0.22 v -0.011 l -0.799,-2.514 -0.022,-0.252 0.002,-0.229 0.206,-0.679 0.002,-0.255 -0.078,-0.27 -0.343,-0.605 -0.09,-0.25 -0.007,-0.219 0.127,-0.47 0.584,-1.176 0.036,-0.24 -0.029,-0.23 -0.08,-0.224 -2.132,-3.403 -0.2,-0.485 -0.212,-0.818 -0.02,-0.255 0.005,-0.235 0.112,-0.475 0.574,-1.236 0.142,-0.46 0.03,-0.219 0.004,-0.419 -0.02,-0.18 -0.055,-0.164 -0.411,-0.805 -0.096,-0.261 -0.046,-0.266 -0.002,-0.256 0.031,-0.291 0.076,-0.25 0.106,-0.245 0.449,-0.715 0.218,-0.502 0.439,-2.022 0.02,-0.316 L 3.4,-64.491 3.233,-65.124 3.015,-65.492 1.5,-66.927 1.2,-67.361 1.019,-67.75 l -0.115,-0.423 -0.223,-0.234 -0.31,-0.174 -0.415,-0.168 -0.25,-0.225 -0.122,-0.231 -0.048,-0.261 -0.001,-0.305 v -0.017 l -7.138,6.862 -9.009,7.415 -2.33,2.637 -0.485,0.402 -1.135,0.664 -0.411,0.488 -0.187,0.662 0.281,0.836 -0.094,0.788 -0.61,1.01 -1.032,0.858 -1.167,0.605 -0.992,0.228 -0.704,0.386 -4.632,3.674 -2.676,2.932 -3.494,2.198 -1.197,0.523 -2.479,0.482 -1.157,0.668 -0.685,0.876 0.173,0.893 0.603,-0.375 0.512,-0.054 0.415,0.269 0.299,0.61 -1.314,0.301 -0.879,0.688 0.004,0.011 0.025,0.087 0.659,1.289 0.088,0.337 0.211,0.431 0.466,0.673 0.086,0.343 -0.074,0.306 -0.246,0.63 -0.025,0.388 0.24,1.948 0.12,0.327 0.143,0.281 0.983,1.223 0.308,0.694 0.223,0.199 0.391,0.133 0.328,0.179 0.224,0.4 0.017,0.383 -0.122,0.332 -0.218,0.226 -0.139,0.25 -0.025,0.265 0.011,0.293 -0.052,0.286 0.017,0.266 0.237,0.174 0.653,0.24 0.721,0.398 1.128,1.049 0.407,0.649 0.224,0.533 -0.005,0.389 -0.302,0.996 -0.05,0.364 0.043,0.358 0.143,0.301 2.036,2.184 0.282,0.727 0.312,0.568 0.188,0.694 0.248,0.599 v 0.308 l -0.179,0.219 -0.567,0.302 -0.131,0.286 -0.111,0.614 -0.217,0.168 -0.254,0.089 -0.201,0.174 -0.138,0.48 0.296,0.204 0.548,0.297 2.353,0.455 1.062,0.385 0.706,-0.23 0.259,-0.123 0.039,-0.14 -0.025,-0.158 -0.085,-0.2 -0.05,-0.25 0.023,-0.276 0.122,-0.276 0.183,-0.199 0.472,-0.296 0.166,-0.15 0.113,-0.159 0.09,-0.168 0.127,-0.164 0.168,-0.118 1.012,-0.321 0.243,-0.149 0.199,-0.174 0.379,-0.461 0.22,-0.184 0.39,-0.108 0.52,-0.025 0.941,0.143 0.522,0.164 0.524,0.41 0.306,0.291 0.236,0.327 0.55,0.537 0.201,0.077 1.06,-0.169 0.826,0.154 0.944,-0.031 1.801,-0.542 0.515,-0.087 0.514,-0.005 0.462,0.205 0.61,0.388 1.731,1.56 0.609,0.69 0.325,0.253 0.366,0.163 0.552,0.072 0.355,-0.031 0.325,-0.092 1.269,-0.687 0.236,-0.092 0.244,-0.061 0.238,-0.02 0.254,0.015 0.261,0.051 1.398,1.356 4.903,5.93 0.325,-0.46 0.205,-0.138 0.254,-0.133 z"
         style="fill:none;stroke:#999999;stroke-width:0.25;stroke-linecap:round;stroke-linejoin:round;stroke-miterlimit:4;stroke-dasharray:none;stroke-opacity:1"
         id="path112" /></g><g
       id="g114"
       transform="translate(61.286572,498.74758)"><path id="Gbarpolu"
         d="m 0,0 6.567,1.719 3.648,-3.438 11.92,-3.677 1.701,2.449 6.081,-8.594 10.458,2.456 16.539,-6.874 0.73,-4.418 -9.729,-22.569 1.314,-7.711 -0.923,-0.894 -2.433,-1.411 -1.077,-0.81 -1.264,-1.566 -0.32,-0.277 -0.393,-0.176 -0.315,-0.349 -0.308,-0.261 -0.367,0.088 -0.324,0.169 -0.405,0.078 -0.431,0.004 -0.385,-0.045 -1.557,-0.429 -1.378,-0.626 -2.434,-1.649 -2.041,-2.048 -1.121,-0.816 -1.012,-0.185 -0.714,0.339 -0.193,0.077 -0.159,0.117 -0.029,0.149 0.106,0.15 0.133,0.128 0.076,0.148 -0.017,0.169 -0.181,0.65 -0.109,0.24 -0.186,0.688 -0.129,0.266 -0.175,0.204 -0.132,0.205 0.045,0.25 0.168,0.251 0.289,0.263 0.163,0.194 0.095,0.384 0.011,0.174 -0.04,0.174 -0.102,0.108 -0.929,0.384 -2.287,0.557 -1.709,0.058 -0.691,-0.268 -0.198,-0.215 -0.553,-0.706 -4.299,-3.483 -0.322,-0.465 -0.643,-1.209 -1.024,-1.358 -2.073,-2.171 -0.488,-0.378 -0.516,-0.153 -0.503,-0.087 -0.475,-0.006 -1.683,0.302 H 11.02 l -0.498,-0.143 -2.175,-0.994 -0.641,-0.399 -0.412,-0.322 -0.105,-0.225 -0.078,-0.246 -0.072,-1.455 -0.192,-1.127 -0.56,-2.093 -1.939,-0.435 -7.201,-0.02 -3.401,-1.347 -0.527,-0.322 -0.669,-0.573 -0.538,-0.388 -0.657,-0.386 -1.188,-0.501 -0.565,-0.087 -0.391,0.036 -0.462,0.435 -0.462,0.518 -0.232,0.352 -0.136,0.282 -0.086,0.251 -0.144,0.178 -0.485,0.44 -0.07,0.375 0.031,0.19 0.161,0.378 0.018,0.205 -0.105,0.455 0.041,0.225 0.14,0.232 0.033,0.261 -0.094,0.276 -0.111,0.235 -0.156,0.455 -0.02,0.184 0.04,0.189 0.092,0.19 0.064,0.232 0.098,0.24 0.124,0.455 0.018,0.179 -0.045,0.2 -0.082,0.214 -0.121,0.263 -0.056,0.215 0.025,0.169 0.137,0.112 0.258,0.021 1.003,-0.021 0.224,0.047 0.062,0.127 -0.154,0.149 -0.112,0.138 -0.069,0.174 0.024,0.266 -0.112,0.25 -0.347,0.358 -4.096,0.841 -0.299,0.015 -0.315,-0.01 -1.231,-0.327 -1.406,-0.107 -0.764,0.081 -3.638,1.284 -0.427,-0.013 -0.486,-0.191 -0.481,0.462 -0.006,0.03 0.191,0.318 0.467,0.317 0.416,0.169 0.852,0.153 0.432,0.328 0.44,0.528 0.724,1.146 0.628,0.759 0.35,0.19 0.22,0.168 0.42,0.451 0.241,0.204 0.307,0.154 1.041,0.329 0.312,0.153 0.249,0.231 0.539,0.654 0.31,0.226 1.192,0.656 0.308,0.098 0.644,-0.023 0.3,0.104 0.257,0.164 0.221,0.236 0.477,0.424 0.558,0.292 0.2,0.164 0.135,0.169 1.019,1.736 0.266,0.334 0.266,0.272 1.33,0.941 0.232,0.225 0.203,0.241 0.244,0.215 0.299,0.155 0.356,0.108 1.569,0.327 4.744,2.931 0.955,0.855 0.277,0.179 0.305,0.154 1.378,0.44 0.287,0.169 0.236,0.22 0.201,0.248 0.462,0.45 0.885,0.589 0.265,0.437 0.091,0.47 -0.322,1.506 0.052,0.565 -0.015,1.291 -0.24,1.367 -0.218,0.621 -0.168,0.328 -3.815,5.321 -0.584,0.471 -0.66,0.287 -1.317,0.148 -1.035,0.021 -1.116,-0.108 -0.399,0.179 -0.547,0.857 -0.954,-0.128 -0.358,-0.082 -4.705,0.881 -0.554,0.405 -0.153,0.092 h -0.173 l -0.914,-0.19 -0.376,-0.01 -0.203,0.062 -0.21,0.117 -0.189,0.456 -0.288,0.197 -0.22,0.107 -2.346,0.538 -0.871,0.108 8.741,10.693 2.488,2.121 3.091,1.685 0.477,0.164 1.503,0.232 -0.162,15.986 0.094,0.777 z"
         style="fill:#fff3da;fill-opacity:1;fill-rule:evenodd;stroke:none"
          /></g><g
       id="g118"
       transform="translate(61.286572,498.74758)"><path
         d="m 0,0 6.567,1.719 3.648,-3.438 11.92,-3.677 1.701,2.449 6.081,-8.594 10.458,2.456 16.539,-6.874 0.73,-4.418 -9.729,-22.569 1.314,-7.711 -0.923,-0.894 -2.433,-1.411 -1.077,-0.81 -1.264,-1.566 -0.32,-0.277 -0.393,-0.176 -0.315,-0.349 -0.308,-0.261 -0.367,0.088 -0.324,0.169 -0.405,0.078 -0.431,0.004 -0.385,-0.045 -1.557,-0.429 -1.378,-0.626 -2.434,-1.649 -2.041,-2.048 -1.121,-0.816 -1.012,-0.185 -0.714,0.339 -0.193,0.077 -0.159,0.117 -0.029,0.149 0.106,0.15 0.133,0.128 0.076,0.148 -0.017,0.169 -0.181,0.65 -0.109,0.24 -0.186,0.688 -0.129,0.266 -0.175,0.204 -0.132,0.205 0.045,0.25 0.168,0.251 0.289,0.263 0.163,0.194 0.095,0.384 0.011,0.174 -0.04,0.174 -0.102,0.108 -0.929,0.384 -2.287,0.557 -1.709,0.058 -0.691,-0.268 -0.198,-0.215 -0.553,-0.706 -4.299,-3.483 -0.322,-0.465 -0.643,-1.209 -1.024,-1.358 -2.073,-2.171 -0.488,-0.378 -0.516,-0.153 -0.503,-0.087 -0.475,-0.006 -1.683,0.302 H 11.02 l -0.498,-0.143 -2.175,-0.994 -0.641,-0.399 -0.412,-0.322 -0.105,-0.225 -0.078,-0.246 -0.072,-1.455 -0.192,-1.127 -0.56,-2.093 -1.939,-0.435 -7.201,-0.02 -3.401,-1.347 -0.527,-0.322 -0.669,-0.573 -0.538,-0.388 -0.657,-0.386 -1.188,-0.501 -0.565,-0.087 -0.391,0.036 -0.462,0.435 -0.462,0.518 -0.232,0.352 -0.136,0.282 -0.086,0.251 -0.144,0.178 -0.485,0.44 -0.07,0.375 0.031,0.19 0.161,0.378 0.018,0.205 -0.105,0.455 0.041,0.225 0.14,0.232 0.033,0.261 -0.094,0.276 -0.111,0.235 -0.156,0.455 -0.02,0.184 0.04,0.189 0.092,0.19 0.064,0.232 0.098,0.24 0.124,0.455 0.018,0.179 -0.045,0.2 -0.082,0.214 -0.121,0.263 -0.056,0.215 0.025,0.169 0.137,0.112 0.258,0.021 1.003,-0.021 0.224,0.047 0.062,0.127 -0.154,0.149 -0.112,0.138 -0.069,0.174 0.024,0.266 -0.112,0.25 -0.347,0.358 -4.096,0.841 -0.299,0.015 -0.315,-0.01 -1.231,-0.327 -1.406,-0.107 -0.764,0.081 -3.638,1.284 -0.427,-0.013 -0.486,-0.191 -0.481,0.462 -0.006,0.03 0.191,0.318 0.467,0.317 0.416,0.169 0.852,0.153 0.432,0.328 0.44,0.528 0.724,1.146 0.628,0.759 0.35,0.19 0.22,0.168 0.42,0.451 0.241,0.204 0.307,0.154 1.041,0.329 0.312,0.153 0.249,0.231 0.539,0.654 0.31,0.226 1.192,0.656 0.308,0.098 0.644,-0.023 0.3,0.104 0.257,0.164 0.221,0.236 0.477,0.424 0.558,0.292 0.2,0.164 0.135,0.169 1.019,1.736 0.266,0.334 0.266,0.272 1.33,0.941 0.232,0.225 0.203,0.241 0.244,0.215 0.299,0.155 0.356,0.108 1.569,0.327 4.744,2.931 0.955,0.855 0.277,0.179 0.305,0.154 1.378,0.44 0.287,0.169 0.236,0.22 0.201,0.248 0.462,0.45 0.885,0.589 0.265,0.437 0.091,0.47 -0.322,1.506 0.052,0.565 -0.015,1.291 -0.24,1.367 -0.218,0.621 -0.168,0.328 -3.815,5.321 -0.584,0.471 -0.66,0.287 -1.317,0.148 -1.035,0.021 -1.116,-0.108 -0.399,0.179 -0.547,0.857 -0.954,-0.128 -0.358,-0.082 -4.705,0.881 -0.554,0.405 -0.153,0.092 h -0.173 l -0.914,-0.19 -0.376,-0.01 -0.203,0.062 -0.21,0.117 -0.189,0.456 -0.288,0.197 -0.22,0.107 -2.346,0.538 -0.871,0.108 8.741,10.693 2.488,2.121 3.091,1.685 0.477,0.164 1.503,0.232 -0.162,15.986 0.094,0.777 z"
         style="fill:none;stroke:#999999;stroke-width:0.25;stroke-linecap:round;stroke-linejoin:round;stroke-miterlimit:4;stroke-dasharray:none;stroke-opacity:1"
         id="path120" /></g><g
       id="g122"
       transform="translate(145.19767,458.80958)"><path id="Bong"
         d="M 0,0 2.232,0.594 3.239,0.478 4.187,-0.864 5.077,-5 6.702,-6.498 7.098,-6.57 l 1.465,0.058 0.367,-0.27 0.037,-1.143 0.508,-0.409 1.279,-0.655 0.233,-0.877 -0.612,-2.276 0.751,0.672 0.515,0.171 -0.237,-0.608 -2.15,-7.181 -1.166,-1.629 -0.141,-0.994 -0.025,-0.665 -0.299,-0.809 -0.08,-0.589 -0.021,-0.901 -0.014,-0.031 -0.132,-0.204 -1.101,-1.122 0.014,-0.281 0.411,-0.446 0.364,-0.544 0.264,-0.174 0.593,-0.301 0.213,-0.287 0.17,-0.363 0.155,-0.508 0.215,-0.322 0.237,-0.256 0.172,-0.281 0.197,-0.722 0.167,-0.262 0.289,-0.108 0.209,-0.041 0.284,-0.02 0.127,-0.056 0.173,-0.118 0.33,-0.563 0.545,-0.564 0.01,-0.501 -0.364,-1.874 -0.056,-0.705 0.06,-0.647 0.3,-1.359 -0.06,-0.461 -0.194,-0.313 -0.485,-0.42 -0.219,-0.23 -0.265,-0.23 -0.254,-0.256 -0.227,-0.327 0.044,-0.324 0.205,-0.25 0.218,-0.425 0.014,-0.358 -0.135,-0.286 -0.482,-0.419 -0.148,-0.309 -0.122,-0.322 -0.168,-0.327 -0.432,-0.634 -0.005,-0.317 0.125,-0.411 -0.244,-0.971 -0.167,-0.404 -0.217,-0.349 -0.508,-0.593 v -0.343 l 0.467,-0.794 0.018,-0.45 -0.358,-1.07 -0.295,-0.312 -0.293,-0.133 -0.654,0.016 -0.73,-0.087 -1.068,0.02 -6.231,-1.566 -0.753,0.069 -0.111,0.347 -0.183,0.312 -0.462,0.209 -0.28,-0.122 -0.201,-0.235 -0.413,-0.385 -0.991,-0.701 -0.297,-0.322 -0.165,-0.373 -0.07,-0.363 -0.154,-0.38 -0.262,-0.332 -0.46,-0.399 -0.448,-0.092 -0.58,0.016 -0.329,-0.118 -1.265,-1.233 -0.977,-0.69 -0.346,-0.533 -0.42,-0.813 -0.305,-0.016 -0.353,0.098 -0.578,0.102 -0.373,-0.123 -0.321,-0.204 -0.286,-0.296 -0.348,-0.037 -0.331,0.062 -0.433,0.025 -0.238,-0.158 -0.118,-0.276 -0.072,-0.323 -0.422,-0.64 -0.377,-0.423 -0.224,-0.164 -0.315,-0.092 -0.634,0.067 -0.263,-0.005 -0.577,-0.073 -0.337,0.011 -0.739,0.266 -0.555,0.071 -0.302,-0.148 -1.2,-1.065 -1.781,-1.027 -0.779,-0.266 h -0.547 l -0.192,0.241 -0.149,0.245 -0.101,0.251 -0.051,0.229 -0.014,0.24 0.035,0.266 0.077,0.268 0.105,0.265 0.62,1.033 1.652,2.107 0.922,0.891 0.794,0.961 0.134,0.242 0.086,0.235 0.051,0.24 0.005,0.235 -0.031,0.266 -0.106,0.347 -0.254,0.442 -0.303,0.399 -1.56,1.369 -1.72,2.089 -0.295,0.287 -0.374,0.265 -0.633,0.297 -0.386,0.061 -0.318,-0.015 -0.235,-0.061 -3.238,-0.348 -0.488,0.031 -0.253,0.133 -0.205,0.138 -0.325,0.46 1.328,2.917 0.336,1.002 0.013,0.375 -0.03,0.455 -0.109,0.649 -0.135,0.445 -0.158,0.375 -0.177,0.302 -0.219,0.291 -0.455,0.466 -0.871,0.685 -1.094,0.697 -0.513,0.25 -0.533,0.18 -0.631,0.147 -0.264,0.021 -0.264,-0.031 -0.239,-0.102 -0.274,-0.184 -0.45,-0.47 -0.331,-0.467 -0.135,-0.246 -0.101,-0.276 -0.081,-0.307 -0.048,-0.322 -0.003,-0.588 0.178,-1.525 -0.021,-0.266 -0.078,-0.261 -0.171,-0.252 -0.959,-0.9 -0.166,-0.245 -0.234,-0.488 -0.196,-0.536 -0.122,-0.501 -0.107,-0.973 -0.167,-0.772 -0.097,-0.241 -0.228,-0.265 -0.371,-0.283 -0.755,-0.343 -0.445,-0.072 -0.348,0.026 -0.231,0.138 -0.232,0.176 -0.47,0.516 -1.131,1.561 -0.225,0.209 -0.475,0.338 -0.248,0.133 -1.47,0.491 -2.773,0.661 -0.589,0.051 -0.247,-0.051 -0.735,-0.287 -1.494,-0.819 -0.887,-0.256 -0.53,-0.051 -0.523,0.051 -8.082,2.691 -0.548,0.303 -0.57,0.384 -0.549,0.455 -1.108,1.142 -0.325,0.266 -0.459,0.296 -0.888,0.466 -0.53,0.194 -0.413,0.107 -1.016,-0.056 -1.401,-0.195 -2.177,-0.03 -1.075,0.907 -0.672,0.204 -0.309,-0.02 -0.544,-0.092 -0.624,-0.041 -2.837,0.169 -0.787,0.265 -0.669,0.512 -0.216,0.559 -2.046,2.425 0.052,0.021 0.922,0.37 0.424,0.499 1.049,1.828 0.56,2.093 0.191,1.127 0.073,1.455 0.078,0.246 0.105,0.225 0.411,0.322 0.642,0.399 2.175,0.994 0.497,0.143 h 0.249 l 1.683,-0.302 0.475,0.006 0.503,0.087 0.516,0.153 0.487,0.378 2.074,2.171 1.024,1.358 0.643,1.209 0.321,0.465 4.3,3.483 0.553,0.706 0.198,0.215 0.691,0.268 1.709,-0.058 2.287,-0.557 0.929,-0.384 0.102,-0.108 0.04,-0.174 -0.012,-0.174 -0.094,-0.384 -0.163,-0.194 -0.29,-0.263 -0.167,-0.251 -0.045,-0.25 0.131,-0.205 0.176,-0.204 0.129,-0.266 0.186,-0.688 0.109,-0.24 0.181,-0.65 0.017,-0.169 -0.076,-0.148 -0.133,-0.128 -0.106,-0.15 0.029,-0.149 0.159,-0.117 0.193,-0.077 0.714,-0.339 1.012,0.185 1.12,0.816 2.042,2.048 2.433,1.649 1.378,0.626 1.558,0.429 0.385,0.045 0.43,-0.004 0.406,-0.078 0.324,-0.169 0.367,-0.088 0.308,0.261 0.315,0.349 0.393,0.176 0.32,0.277 1.264,1.566 1.076,0.81 2.434,1.411 0.922,0.894 1.945,-0.894 0.926,-0.253 2.37,-0.319 0.443,0.014 0.618,0.141 0.552,0.261 1.115,0.773 0.569,0.277 v -0.41 l 0.907,0.495 0.84,0.911 0.424,0.996 -0.341,0.754 0.372,0.82 0.492,0.723 0.671,0.513 1.802,0.34 1.273,0.619 1.464,0.333 1.041,0.471 2.527,1.707 1.581,1.689 -0.094,0.241 -0.033,0.23 -0.095,0.221 -0.004,0.009 0.031,-0.025 0.542,0.27 1.905,1.86 0.732,1.089 1.269,-2.232 0.744,-0.642 0.99,1.44 0.378,0.12 0.332,0.218 0.142,0.717 0.268,0.229 0.602,0.119 1.097,0.031 0.931,-0.126 0.474,-0.171 0.548,-0.338 0.457,-0.57 0.454,-1.311 0.393,-0.454 z"
         style="fill:#ffe3ca;fill-opacity:1;fill-rule:evenodd;stroke:none"
         /></g><g
       id="g126"
       transform="translate(145.19767,458.80958)"><path
         d="M 0,0 2.232,0.594 3.239,0.478 4.187,-0.864 5.077,-5 6.702,-6.498 7.098,-6.57 l 1.465,0.058 0.367,-0.27 0.037,-1.143 0.508,-0.409 1.279,-0.655 0.233,-0.877 -0.612,-2.276 0.751,0.672 0.515,0.171 -0.237,-0.608 -2.15,-7.181 -1.166,-1.629 -0.141,-0.994 -0.025,-0.665 -0.299,-0.809 -0.08,-0.589 -0.021,-0.901 -0.014,-0.031 -0.132,-0.204 -1.101,-1.122 0.014,-0.281 0.411,-0.446 0.364,-0.544 0.264,-0.174 0.593,-0.301 0.213,-0.287 0.17,-0.363 0.155,-0.508 0.215,-0.322 0.237,-0.256 0.172,-0.281 0.197,-0.722 0.167,-0.262 0.289,-0.108 0.209,-0.041 0.284,-0.02 0.127,-0.056 0.173,-0.118 0.33,-0.563 0.545,-0.564 0.01,-0.501 -0.364,-1.874 -0.056,-0.705 0.06,-0.647 0.3,-1.359 -0.06,-0.461 -0.194,-0.313 -0.485,-0.42 -0.219,-0.23 -0.265,-0.23 -0.254,-0.256 -0.227,-0.327 0.044,-0.324 0.205,-0.25 0.218,-0.425 0.014,-0.358 -0.135,-0.286 -0.482,-0.419 -0.148,-0.309 -0.122,-0.322 -0.168,-0.327 -0.432,-0.634 -0.005,-0.317 0.125,-0.411 -0.244,-0.971 -0.167,-0.404 -0.217,-0.349 -0.508,-0.593 v -0.343 l 0.467,-0.794 0.018,-0.45 -0.358,-1.07 -0.295,-0.312 -0.293,-0.133 -0.654,0.016 -0.73,-0.087 -1.068,0.02 -6.231,-1.566 -0.753,0.069 -0.111,0.347 -0.183,0.312 -0.462,0.209 -0.28,-0.122 -0.201,-0.235 -0.413,-0.385 -0.991,-0.701 -0.297,-0.322 -0.165,-0.373 -0.07,-0.363 -0.154,-0.38 -0.262,-0.332 -0.46,-0.399 -0.448,-0.092 -0.58,0.016 -0.329,-0.118 -1.265,-1.233 -0.977,-0.69 -0.346,-0.533 -0.42,-0.813 -0.305,-0.016 -0.353,0.098 -0.578,0.102 -0.373,-0.123 -0.321,-0.204 -0.286,-0.296 -0.348,-0.037 -0.331,0.062 -0.433,0.025 -0.238,-0.158 -0.118,-0.276 -0.072,-0.323 -0.422,-0.64 -0.377,-0.423 -0.224,-0.164 -0.315,-0.092 -0.634,0.067 -0.263,-0.005 -0.577,-0.073 -0.337,0.011 -0.739,0.266 -0.555,0.071 -0.302,-0.148 -1.2,-1.065 -1.781,-1.027 -0.779,-0.266 h -0.547 l -0.192,0.241 -0.149,0.245 -0.101,0.251 -0.051,0.229 -0.014,0.24 0.035,0.266 0.077,0.268 0.105,0.265 0.62,1.033 1.652,2.107 0.922,0.891 0.794,0.961 0.134,0.242 0.086,0.235 0.051,0.24 0.005,0.235 -0.031,0.266 -0.106,0.347 -0.254,0.442 -0.303,0.399 -1.56,1.369 -1.72,2.089 -0.295,0.287 -0.374,0.265 -0.633,0.297 -0.386,0.061 -0.318,-0.015 -0.235,-0.061 -3.238,-0.348 -0.488,0.031 -0.253,0.133 -0.205,0.138 -0.325,0.46 1.328,2.917 0.336,1.002 0.013,0.375 -0.03,0.455 -0.109,0.649 -0.135,0.445 -0.158,0.375 -0.177,0.302 -0.219,0.291 -0.455,0.466 -0.871,0.685 -1.094,0.697 -0.513,0.25 -0.533,0.18 -0.631,0.147 -0.264,0.021 -0.264,-0.031 -0.239,-0.102 -0.274,-0.184 -0.45,-0.47 -0.331,-0.467 -0.135,-0.246 -0.101,-0.276 -0.081,-0.307 -0.048,-0.322 -0.003,-0.588 0.178,-1.525 -0.021,-0.266 -0.078,-0.261 -0.171,-0.252 -0.959,-0.9 -0.166,-0.245 -0.234,-0.488 -0.196,-0.536 -0.122,-0.501 -0.107,-0.973 -0.167,-0.772 -0.097,-0.241 -0.228,-0.265 -0.371,-0.283 -0.755,-0.343 -0.445,-0.072 -0.348,0.026 -0.231,0.138 -0.232,0.176 -0.47,0.516 -1.131,1.561 -0.225,0.209 -0.475,0.338 -0.248,0.133 -1.47,0.491 -2.773,0.661 -0.589,0.051 -0.247,-0.051 -0.735,-0.287 -1.494,-0.819 -0.887,-0.256 -0.53,-0.051 -0.523,0.051 -8.082,2.691 -0.548,0.303 -0.57,0.384 -0.549,0.455 -1.108,1.142 -0.325,0.266 -0.459,0.296 -0.888,0.466 -0.53,0.194 -0.413,0.107 -1.016,-0.056 -1.401,-0.195 -2.177,-0.03 -1.075,0.907 -0.672,0.204 -0.309,-0.02 -0.544,-0.092 -0.624,-0.041 -2.837,0.169 -0.787,0.265 -0.669,0.512 -0.216,0.559 -2.046,2.425 0.052,0.021 0.922,0.37 0.424,0.499 1.049,1.828 0.56,2.093 0.191,1.127 0.073,1.455 0.078,0.246 0.105,0.225 0.411,0.322 0.642,0.399 2.175,0.994 0.497,0.143 h 0.249 l 1.683,-0.302 0.475,0.006 0.503,0.087 0.516,0.153 0.487,0.378 2.074,2.171 1.024,1.358 0.643,1.209 0.321,0.465 4.3,3.483 0.553,0.706 0.198,0.215 0.691,0.268 1.709,-0.058 2.287,-0.557 0.929,-0.384 0.102,-0.108 0.04,-0.174 -0.012,-0.174 -0.094,-0.384 -0.163,-0.194 -0.29,-0.263 -0.167,-0.251 -0.045,-0.25 0.131,-0.205 0.176,-0.204 0.129,-0.266 0.186,-0.688 0.109,-0.24 0.181,-0.65 0.017,-0.169 -0.076,-0.148 -0.133,-0.128 -0.106,-0.15 0.029,-0.149 0.159,-0.117 0.193,-0.077 0.714,-0.339 1.012,0.185 1.12,0.816 2.042,2.048 2.433,1.649 1.378,0.626 1.558,0.429 0.385,0.045 0.43,-0.004 0.406,-0.078 0.324,-0.169 0.367,-0.088 0.308,0.261 0.315,0.349 0.393,0.176 0.32,0.277 1.264,1.566 1.076,0.81 2.434,1.411 0.922,0.894 1.945,-0.894 0.926,-0.253 2.37,-0.319 0.443,0.014 0.618,0.141 0.552,0.261 1.115,0.773 0.569,0.277 v -0.41 l 0.907,0.495 0.84,0.911 0.424,0.996 -0.341,0.754 0.372,0.82 0.492,0.723 0.671,0.513 1.802,0.34 1.273,0.619 1.464,0.333 1.041,0.471 2.527,1.707 1.581,1.689 -0.094,0.241 -0.033,0.23 -0.095,0.221 -0.004,0.009 0.031,-0.025 0.542,0.27 1.905,1.86 0.732,1.089 1.269,-2.232 0.744,-0.642 0.99,1.44 0.378,0.12 0.332,0.218 0.142,0.717 0.268,0.229 0.602,0.119 1.097,0.031 0.931,-0.126 0.474,-0.171 0.548,-0.338 0.457,-0.57 0.454,-1.311 0.393,-0.454 z"
         style="fill:none;stroke:#999999;stroke-width:0.25;stroke-linecap:round;stroke-linejoin:round;stroke-miterlimit:4;stroke-dasharray:none;stroke-opacity:1"
         id="path128" /></g><g
       id="g130"
       transform="translate(42.082472,432.49618)"><path id="Bomi"
         d="M 0,0 1.406,0.107 2.637,0.435 2.952,0.445 3.251,0.43 7.347,-0.411 7.694,-0.769 7.806,-1.02 7.782,-1.286 7.852,-1.46 7.963,-1.598 8.117,-1.746 8.055,-1.874 7.831,-1.92 6.828,-1.9 6.57,-1.92 6.433,-2.033 6.408,-2.202 6.464,-2.417 6.585,-2.679 6.667,-2.894 6.712,-3.093 6.694,-3.272 6.57,-3.728 6.472,-3.968 6.408,-4.2 6.316,-4.389 6.276,-4.578 6.296,-4.762 6.452,-5.218 6.563,-5.453 6.657,-5.729 6.625,-5.99 6.484,-6.222 6.443,-6.447 6.548,-6.902 6.53,-7.106 6.369,-7.485 6.338,-7.674 l 0.07,-0.375 0.486,-0.44 0.144,-0.179 0.086,-0.25 0.135,-0.282 0.232,-0.353 0.462,-0.518 0.462,-0.435 0.391,-0.036 0.566,0.087 1.188,0.502 0.656,0.385 0.538,0.388 0.669,0.574 0.527,0.321 3.402,1.347 7.2,0.021 1.939,0.435 -1.049,-1.828 -0.423,-0.5 -0.923,-0.37 -0.052,-0.02 -1.288,-0.523 -1.799,-0.205 -0.437,-0.245 -0.132,-0.611 0.037,-0.91 -0.088,-0.823 -0.507,-0.358 -0.245,-0.341 0.099,-0.777 0.349,-1.379 -0.234,-0.585 -1.121,-1.325 -0.394,-0.588 0.08,-0.026 -0.08,-1.285 -0.091,-0.383 -0.254,-0.629 -0.102,-0.378 -0.072,-0.709 0.072,-2.219 0.269,-0.494 1.724,-1.757 0.578,-0.806 -0.001,-0.453 -0.781,-0.766 -1.515,-1.179 -0.753,-0.157 -1.096,0.511 -0.2,0.22 -0.232,0.204 -2.649,1.711 -0.599,0.271 -0.335,0.051 -0.369,-0.057 -0.465,-0.163 -0.59,-0.38 -0.597,-0.47 -1.029,-0.973 -0.965,-0.721 -0.24,-0.092 -1.553,-0.296 -0.807,-0.276 -0.709,-0.434 -0.337,-0.349 -0.192,-0.343 -0.061,-0.404 -0.028,-0.639 0.043,-0.528 0.096,-0.516 0.628,-1.816 0.136,-0.551 -0.082,-0.804 -0.729,-1.796 -0.025,-0.037 -0.011,-0.015 -1.16,2.332 -2.161,2.315 -2.527,1.725 -10.331,5.615 -1.537,0.551 -10e-4,0.006 -0.198,0.794 -0.109,0.843 0.085,0.497 0.21,0.531 0.514,0.784 0.356,0.398 0.328,0.287 0.283,0.184 0.643,0.262 0.69,0.164 0.249,0.25 0.138,0.425 0.089,0.818 0.191,0.61 0.437,0.705 0.325,0.348 0.323,0.245 0.251,0.15 0.238,0.077 0.222,0.026 0.305,-0.056 0.541,-0.2 0.244,0.061 0.156,0.154 0.098,0.153 0.161,0.435 0.521,2.072 0.078,1.311 0.161,1.022 -0.183,0.764 -0.212,0.378 -0.68,0.737 -0.09,0.375 0.051,0.506 0.88,1.863 1.693,4.674 0.068,0.544 -0.099,0.67 0.031,0.572 0.286,1.266 -0.234,0.721 0.486,0.191 0.427,0.014 3.638,-1.284 z"
         style="fill:#fcd4c7;fill-opacity:1;fill-rule:evenodd;stroke:none"
         /></g><g
       id="g134"
       transform="translate(42.082472,432.49618)"><path
         d="M 0,0 1.406,0.107 2.637,0.435 2.952,0.445 3.251,0.43 7.347,-0.411 7.694,-0.769 7.806,-1.02 7.782,-1.286 7.852,-1.46 7.963,-1.598 8.117,-1.746 8.055,-1.874 7.831,-1.92 6.828,-1.9 6.57,-1.92 6.433,-2.033 6.408,-2.202 6.464,-2.417 6.585,-2.679 6.667,-2.894 6.712,-3.093 6.694,-3.272 6.57,-3.728 6.472,-3.968 6.408,-4.2 6.316,-4.389 6.276,-4.578 6.296,-4.762 6.452,-5.218 6.563,-5.453 6.657,-5.729 6.625,-5.99 6.484,-6.222 6.443,-6.447 6.548,-6.902 6.53,-7.106 6.369,-7.485 6.338,-7.674 l 0.07,-0.375 0.486,-0.44 0.144,-0.179 0.086,-0.25 0.135,-0.282 0.232,-0.353 0.462,-0.518 0.462,-0.435 0.391,-0.036 0.566,0.087 1.188,0.502 0.656,0.385 0.538,0.388 0.669,0.574 0.527,0.321 3.402,1.347 7.2,0.021 1.939,0.435 -1.049,-1.828 -0.423,-0.5 -0.923,-0.37 -0.052,-0.02 -1.288,-0.523 -1.799,-0.205 -0.437,-0.245 -0.132,-0.611 0.037,-0.91 -0.088,-0.823 -0.507,-0.358 -0.245,-0.341 0.099,-0.777 0.349,-1.379 -0.234,-0.585 -1.121,-1.325 -0.394,-0.588 0.08,-0.026 -0.08,-1.285 -0.091,-0.383 -0.254,-0.629 -0.102,-0.378 -0.072,-0.709 0.072,-2.219 0.269,-0.494 1.724,-1.757 0.578,-0.806 -0.001,-0.453 -0.781,-0.766 -1.515,-1.179 -0.753,-0.157 -1.096,0.511 -0.2,0.22 -0.232,0.204 -2.649,1.711 -0.599,0.271 -0.335,0.051 -0.369,-0.057 -0.465,-0.163 -0.59,-0.38 -0.597,-0.47 -1.029,-0.973 -0.965,-0.721 -0.24,-0.092 -1.553,-0.296 -0.807,-0.276 -0.709,-0.434 -0.337,-0.349 -0.192,-0.343 -0.061,-0.404 -0.028,-0.639 0.043,-0.528 0.096,-0.516 0.628,-1.816 0.136,-0.551 -0.082,-0.804 -0.729,-1.796 -0.025,-0.037 -0.011,-0.015 -1.16,2.332 -2.161,2.315 -2.527,1.725 -10.331,5.615 -1.537,0.551 -10e-4,0.006 -0.198,0.794 -0.109,0.843 0.085,0.497 0.21,0.531 0.514,0.784 0.356,0.398 0.328,0.287 0.283,0.184 0.643,0.262 0.69,0.164 0.249,0.25 0.138,0.425 0.089,0.818 0.191,0.61 0.437,0.705 0.325,0.348 0.323,0.245 0.251,0.15 0.238,0.077 0.222,0.026 0.305,-0.056 0.541,-0.2 0.244,0.061 0.156,0.154 0.098,0.153 0.161,0.435 0.521,2.072 0.078,1.311 0.161,1.022 -0.183,0.764 -0.212,0.378 -0.68,0.737 -0.09,0.375 0.051,0.506 0.88,1.863 1.693,4.674 0.068,0.544 -0.099,0.67 0.031,0.572 0.286,1.266 -0.234,0.721 0.486,0.191 0.427,0.014 3.638,-1.284 z"
         style="fill:none;stroke:#999999;stroke-width:0.25;stroke-linecap:round;stroke-linejoin:round;stroke-miterlimit:4;stroke-dasharray:none;stroke-opacity:1"
         id="path136" /></g></g></svg>
